<svg width="16" height="16" viewBox="0 0 16 16" fill="none" xmlns="http://www.w3.org/2000/svg">
<path d="M10.4772 7.52646L7.14387 4.19313C7.08171 4.13097 7.00791 4.08167 6.9267 4.04803C6.84548 4.01438 6.75844 3.99707 6.67053 3.99707C6.493 3.99707 6.32273 4.0676 6.1972 4.19313C6.13504 4.25529 6.08573 4.32908 6.05209 4.4103C6.01845 4.49151 6.00114 4.57856 6.00114 4.66646C6.00114 4.844 6.07166 5.01426 6.1972 5.1398L9.06387 7.9998L6.1972 10.8598C6.13471 10.9218 6.08512 10.9955 6.05127 11.0767C6.01743 11.158 6 11.2451 6 11.3331C6 11.4211 6.01743 11.5083 6.05127 11.5895C6.08512 11.6708 6.13471 11.7445 6.1972 11.8065C6.25917 11.8689 6.33291 11.9185 6.41415 11.9524C6.49539 11.9862 6.58252 12.0037 6.67053 12.0037C6.75854 12.0037 6.84568 11.9862 6.92692 11.9524C7.00816 11.9185 7.08189 11.8689 7.14387 11.8065L10.4772 8.47313C10.5397 8.41116 10.5893 8.33742 10.6231 8.25618C10.657 8.17494 10.6744 8.08781 10.6744 7.9998C10.6744 7.91179 10.657 7.82465 10.6231 7.74341C10.5893 7.66217 10.5397 7.58844 10.4772 7.52646Z" fill="#F66527"/>
</svg>
