<svg width="32" height="32" viewBox="0 0 32 32" fill="none" xmlns="http://www.w3.org/2000/svg">
<path fill-rule="evenodd" clip-rule="evenodd" d="M5.507 15.214C3.45553 13.1626 3.45553 9.83646 5.507 7.78499C7.55848 5.73352 10.8846 5.73352 12.9361 7.785L22.7764 17.6253C24.0029 18.8518 24.0029 20.8403 22.7764 22.0668C21.5499 23.2933 19.5614 23.2933 18.3349 22.0668L8.52398 12.256L9.23108 11.5488L19.042 21.3597C19.8779 22.1957 21.2333 22.1957 22.0693 21.3597C22.9052 20.5238 22.9052 19.1684 22.0693 18.3324L12.2289 8.4921C10.568 6.83115 7.87506 6.83115 6.21411 8.4921C4.55316 10.153 4.55316 12.846 6.21411 14.5069L15.7039 23.9967C18.1898 26.4827 22.2203 26.4827 24.7063 23.9967C27.1922 21.5108 27.1922 17.4803 24.7063 14.9944L15.2459 5.53402L15.953 4.82691L25.4134 14.2873C28.2898 17.1637 28.2898 21.8274 25.4134 24.7038C22.5369 27.5803 17.8733 27.5803 14.9968 24.7038L5.507 15.214Z" fill="#2A2B2E"/>
</svg>
