<svg width="28" height="24" viewBox="0 0 28 24" fill="none" xmlns="http://www.w3.org/2000/svg">
<path fill-rule="evenodd" clip-rule="evenodd" d="M4.10961 1H0V0H4.89039L5.64039 3H27.1578L24.38 13H8.14039L8.89039 16H23V17H8.10961L4.10961 1ZM7.89039 12H23.62L25.8422 4H5.89039L7.89039 12Z" fill="#2A2B2E"/>
<path fill-rule="evenodd" clip-rule="evenodd" d="M11.5 23C12.3284 23 13 22.3284 13 21.5C13 20.6716 12.3284 20 11.5 20C10.6716 20 10 20.6716 10 21.5C10 22.3284 10.6716 23 11.5 23ZM11.5 24C12.8807 24 14 22.8807 14 21.5C14 20.1193 12.8807 19 11.5 19C10.1193 19 9 20.1193 9 21.5C9 22.8807 10.1193 24 11.5 24Z" fill="#2A2B2E"/>
<path fill-rule="evenodd" clip-rule="evenodd" d="M20.5 23C21.3284 23 22 22.3284 22 21.5C22 20.6716 21.3284 20 20.5 20C19.6716 20 19 20.6716 19 21.5C19 22.3284 19.6716 23 20.5 23ZM20.5 24C21.8807 24 23 22.8807 23 21.5C23 20.1193 21.8807 19 20.5 19C19.1193 19 18 20.1193 18 21.5C18 22.8807 19.1193 24 20.5 24Z" fill="#2A2B2E"/>
</svg>
