<svg width="24" height="24" viewBox="0 0 24 24" fill="none" xmlns="http://www.w3.org/2000/svg">
<path fill-rule="evenodd" clip-rule="evenodd" d="M8.64404 8.64234L5.00479 4.99729C5.00478 4.99728 5.00479 4.9973 5.00479 4.99729C5.00402 4.99654 5.00296 4.99609 5.00189 4.99609C5.00081 4.99609 4.99977 4.99653 4.999 4.99729C4.99823 4.99806 4.9978 4.9991 4.9978 5.00019C4.9978 5.00126 4.99822 5.00229 4.99897 5.00305C4.99898 5.00306 4.99896 5.00304 4.99897 5.00305L8.64404 8.64234ZM5.71189 4.29019L12.0019 10.5902L18.2919 4.29019C18.4802 4.10188 18.7356 3.99609 19.0019 3.99609C19.2682 3.99609 19.5236 4.10188 19.7119 4.29019C19.9002 4.47849 20.006 4.73388 20.006 5.00019C20.006 5.26649 19.9002 5.52188 19.7119 5.71019L13.4119 12.0002L19.7119 18.2902C19.8056 18.3831 19.88 18.4937 19.9308 18.6156C19.9816 18.7375 20.0077 18.8682 20.0077 19.0002C20.0077 19.1322 19.9816 19.2629 19.9308 19.3848C19.88 19.5066 19.8056 19.6172 19.7119 19.7102C19.6189 19.8039 19.5083 19.8783 19.3865 19.9291C19.2646 19.9798 19.1339 20.006 19.0019 20.006C18.8699 20.006 18.7392 19.9798 18.6173 19.9291C18.4955 19.8783 18.3849 19.8039 18.2919 19.7102L12.0019 13.4102L5.71189 19.7102C5.61893 19.8039 5.50833 19.8783 5.38647 19.9291C5.26461 19.9798 5.1339 20.006 5.00189 20.006C4.86988 20.006 4.73917 19.9798 4.61732 19.9291C4.49546 19.8783 4.38486 19.8039 4.29189 19.7102C4.19816 19.6172 4.12377 19.5066 4.073 19.3848C4.02223 19.2629 3.99609 19.1322 3.99609 19.0002C3.99609 18.8682 4.02223 18.7375 4.073 18.6156C4.12377 18.4937 4.19816 18.3831 4.29189 18.2902L10.5919 12.0002L4.29189 5.71019C4.10359 5.52188 3.9978 5.26649 3.9978 5.00019C3.9978 4.73388 4.10359 4.47849 4.29189 4.29019C4.4802 4.10188 4.73559 3.99609 5.00189 3.99609C5.26819 3.99609 5.52359 4.10188 5.71189 4.29019ZM18.999 4.99729C18.999 4.99731 18.999 4.99728 18.999 4.99729L15.36 8.64205L19.0048 5.00308C19.0048 5.00307 19.0048 5.00309 19.0048 5.00308C19.0055 5.00231 19.006 5.00125 19.006 5.00019C19.006 4.9991 19.0056 4.99806 19.0048 4.99729C19.004 4.99652 19.003 4.99609 19.0019 4.99609C19.0008 4.99609 18.9998 4.99655 18.999 4.99729ZM8.64385 15.3582L5.00422 19.0036L5.00192 19.006L4.9961 19.0002L8.64385 15.3582ZM15.3602 15.3585L19.0019 19.006L19.0077 19.0002L19.0053 18.9979L15.3602 15.3585Z" fill="#B0B4BB"/>
</svg>
