<svg width="24" height="24" viewBox="0 0 24 24" fill="none" xmlns="http://www.w3.org/2000/svg">
<path fill-rule="evenodd" clip-rule="evenodd" d="M21.0036 12L21.0016 11.9956C19.092 7.56174 15.5927 5 12.0001 5C8.40746 5 4.90817 7.56174 2.9985 11.9956L2.99659 12L2.99851 12.0044L2.9985 12.0044C4.90817 16.4383 8.40746 19 12.0001 19C15.5927 19 19.092 16.4383 21.0016 12.0044L21.0036 12ZM21.9201 11.6C19.9001 6.91 16.1001 4 12.0001 4C7.90007 4 4.10007 6.91 2.08007 11.6C2.025 11.7262 1.99658 11.8623 1.99658 12C1.99658 12.1377 2.025 12.2738 2.08007 12.4C4.10007 17.09 7.90007 20 12.0001 20C16.1001 20 19.9001 17.09 21.9201 12.4C21.9751 12.2738 22.0036 12.1377 22.0036 12C22.0036 11.8623 21.9751 11.7262 21.9201 11.6Z" fill="#2A2B2E"/>
<path fill-rule="evenodd" clip-rule="evenodd" d="M12 15C13.6569 15 15 13.6569 15 12C15 10.3431 13.6569 9 12 9C10.3431 9 9 10.3431 9 12C9 13.6569 10.3431 15 12 15ZM12 16C14.2091 16 16 14.2091 16 12C16 9.79086 14.2091 8 12 8C9.79086 8 8 9.79086 8 12C8 14.2091 9.79086 16 12 16Z" fill="#2A2B2E"/>
</svg>
