<svg width="24" height="24" viewBox="0 0 24 24" fill="none" xmlns="http://www.w3.org/2000/svg">
<path d="M1.60722 16.0801H12.3592C12.5992 14.4001 14.1592 12.8881 16.0072 12.8881C17.8552 12.8881 19.4152 14.4001 19.6552 16.0801H22.3912C22.6072 16.0801 22.7992 16.2241 22.7992 16.4401C22.7992 16.6561 22.6072 16.8001 22.3912 16.8001H19.6792C19.5112 18.7201 17.9272 20.1841 16.0072 20.1841C14.0872 20.1841 12.5032 18.7201 12.3352 16.8001H1.60722C1.39122 16.8001 1.19922 16.6561 1.19922 16.4401C1.19922 16.2241 1.39122 16.0801 1.60722 16.0801ZM16.0072 19.4641C17.5912 19.4641 18.8872 18.1681 18.8872 16.5841C18.8872 15.0001 17.5912 13.7041 16.0072 13.7041C14.4232 13.7041 13.1272 15.0001 13.1272 16.5841C13.1272 18.1681 14.4232 19.4641 16.0072 19.4641Z" fill="black"/>
<path d="M22.3912 8.15986H13.8232C13.5352 9.83986 12.0232 11.2559 10.1752 11.2559C8.32722 11.2559 6.81522 9.83986 6.52722 8.15986H1.60722C1.39122 8.15986 1.19922 8.01586 1.19922 7.79986C1.19922 7.58386 1.39122 7.43986 1.60722 7.43986H6.50322C6.62322 5.51986 8.23122 3.98386 10.1752 3.98386C12.1192 3.98386 13.7272 5.51986 13.8472 7.43986H22.3912C22.6072 7.43986 22.7992 7.58386 22.7992 7.79986C22.7992 8.01586 22.6072 8.15986 22.3912 8.15986ZM10.1752 4.70386C8.59122 4.70386 7.29522 5.99986 7.29522 7.58386C7.29522 9.16786 8.59122 10.4639 10.1752 10.4639C11.7592 10.4639 13.0552 9.16786 13.0552 7.58386C13.0552 5.99986 11.7592 4.70386 10.1752 4.70386Z" fill="black"/>
</svg>
