<svg width="32" height="32" viewBox="0 0 32 32" fill="none" xmlns="http://www.w3.org/2000/svg">
<path d="M16.0003 12.6934C15.3463 12.6934 14.707 12.8873 14.1632 13.2507C13.6195 13.614 13.1956 14.1305 12.9454 14.7347C12.6951 15.3389 12.6296 16.0037 12.7572 16.6452C12.8848 17.2866 13.1997 17.8758 13.6622 18.3382C14.1246 18.8007 14.7138 19.1156 15.3552 19.2432C15.9967 19.3708 16.6615 19.3053 17.2657 19.055C17.8699 18.8048 18.3864 18.3809 18.7497 17.8372C19.1131 17.2934 19.307 16.6541 19.307 16.0001C19.307 15.5658 19.2215 15.1359 19.0553 14.7347C18.8891 14.3335 18.6455 13.969 18.3385 13.6619C18.0314 13.3549 17.6669 13.1113 17.2657 12.9451C16.8645 12.7789 16.4346 12.6934 16.0003 12.6934V12.6934ZM29.2403 9.42675C29.2333 8.39709 29.0437 7.37684 28.6803 6.41341C28.4127 5.70843 27.9986 5.06821 27.4654 4.535C26.9322 4.00178 26.292 3.5877 25.587 3.32008C24.6236 2.9567 23.6033 2.7671 22.5737 2.76008C20.8537 2.66675 20.347 2.66675 16.0003 2.66675C11.6537 2.66675 11.147 2.66675 9.42699 2.76008C8.39734 2.7671 7.37709 2.9567 6.41366 3.32008C5.70867 3.5877 5.06845 4.00178 4.53524 4.535C4.00203 5.06821 3.58795 5.70843 3.32033 6.41341C2.95694 7.37684 2.76734 8.39709 2.76033 9.42675C2.66699 11.1467 2.66699 11.6534 2.66699 16.0001C2.66699 20.3467 2.66699 20.8534 2.76033 22.5734C2.77468 23.6067 2.96402 24.6301 3.32033 25.6001C3.58676 26.3018 4.0005 26.9384 4.53366 27.4667C5.06458 28.0032 5.70618 28.4172 6.41366 28.6801C7.37709 29.0435 8.39734 29.2331 9.42699 29.2401C11.147 29.3334 11.6537 29.3334 16.0003 29.3334C20.347 29.3334 20.8537 29.3334 22.5737 29.2401C23.6033 29.2331 24.6236 29.0435 25.587 28.6801C26.2945 28.4172 26.9361 28.0032 27.467 27.4667C28.0002 26.9384 28.4139 26.3018 28.6803 25.6001C29.0434 24.6319 29.2329 23.6074 29.2403 22.5734C29.3337 20.8534 29.3337 20.3467 29.3337 16.0001C29.3337 11.6534 29.3337 11.1467 29.2403 9.42675V9.42675ZM25.8537 20.0934C25.8109 20.9162 25.6353 21.7267 25.3337 22.4934C25.0748 23.133 24.69 23.714 24.2021 24.2019C23.7142 24.6898 23.1332 25.0746 22.4937 25.3334C21.7197 25.6182 20.9047 25.7758 20.0803 25.8001C19.027 25.8001 18.747 25.8001 16.0003 25.8001C13.2537 25.8001 12.9737 25.8001 11.9203 25.8001C11.096 25.7758 10.281 25.6182 9.50699 25.3334C8.8458 25.0877 8.2487 24.6957 7.76033 24.1867C7.27721 23.7084 6.90412 23.1306 6.66699 22.4934C6.38107 21.7202 6.2278 20.9043 6.21366 20.0801C6.21366 19.0267 6.21366 18.7467 6.21366 16.0001C6.21366 13.2534 6.21366 12.9734 6.21366 11.9201C6.2278 11.0958 6.38107 10.2799 6.66699 9.50675C6.9127 8.84555 7.30469 8.24845 7.81366 7.76008C8.2941 7.27958 8.87134 6.90687 9.50699 6.66675C10.281 6.38196 11.096 6.22436 11.9203 6.20008V6.20008C12.9737 6.20008 13.2537 6.20008 16.0003 6.20008C18.747 6.20008 19.027 6.20008 20.0803 6.20008C20.9047 6.22436 21.7197 6.38196 22.4937 6.66675C23.1549 6.91246 23.752 7.30445 24.2403 7.81342C24.7234 8.29175 25.0965 8.86959 25.3337 9.50675C25.6185 10.2807 25.776 11.0957 25.8003 11.9201C25.8003 12.9734 25.8003 13.2534 25.8003 16.0001C25.8003 18.7467 25.8937 19.0267 25.8537 20.0801V20.0934ZM23.7203 10.1734C23.5616 9.74273 23.3113 9.3516 22.9867 9.02703C22.6621 8.70246 22.271 8.45217 21.8403 8.29341C21.249 8.08843 20.6261 7.98914 20.0003 8.00008C18.9603 8.00008 18.667 8.00008 16.0003 8.00008C13.3337 8.00008 13.0403 8.00008 12.0003 8.00008C11.3713 8.00623 10.7484 8.12359 10.1603 8.34675C9.73623 8.49829 9.34925 8.73836 9.0251 9.05102C8.70096 9.36367 8.44707 9.74173 8.28033 10.1601C8.08669 10.7539 7.9921 11.3755 8.00033 12.0001C8.00033 13.0401 8.00033 13.3334 8.00033 16.0001C8.00033 18.6667 8.00033 18.9601 8.00033 20.0001C8.01354 20.6283 8.13068 21.2501 8.34699 21.8401C8.50574 22.2708 8.75604 22.6619 9.08061 22.9865C9.40518 23.311 9.7963 23.5613 10.227 23.7201C10.7959 23.9293 11.3945 24.0463 12.0003 24.0667V24.0667C13.0403 24.0667 13.3337 24.0667 16.0003 24.0667C18.667 24.0667 18.9603 24.0667 20.0003 24.0667C20.6293 24.0606 21.2522 23.9432 21.8403 23.7201C22.271 23.5613 22.6621 23.311 22.9867 22.9865C23.3113 22.6619 23.5616 22.2708 23.7203 21.8401C23.9435 21.252 24.0608 20.6291 24.067 20.0001C24.067 18.9601 24.067 18.6667 24.067 16.0001C24.067 13.3334 24.067 13.0401 24.067 12.0001C24.0674 11.3705 23.9498 10.7464 23.7203 10.1601V10.1734ZM16.0003 21.0934C15.3321 21.0934 14.6704 20.9616 14.0532 20.7055C13.436 20.4493 12.8754 20.0739 12.4035 19.6008C11.9316 19.1277 11.5577 18.5661 11.3032 17.9482C11.0487 17.3303 10.9186 16.6683 10.9203 16.0001V16.0001C10.9203 14.9921 11.2194 14.0069 11.7796 13.169C12.3399 12.3311 13.1362 11.6783 14.0676 11.2932C14.9991 10.9081 16.0239 10.808 17.0122 11.0056C18.0006 11.2032 18.9081 11.6896 19.6199 12.4033C20.3317 13.1169 20.8157 14.0257 21.0107 15.0146C21.2058 16.0035 21.103 17.028 20.7154 17.9585C20.3279 18.8889 19.673 19.6835 18.8337 20.2415C17.9943 20.7996 17.0083 21.0961 16.0003 21.0934V21.0934ZM21.3337 11.9067C21.0389 11.8755 20.7661 11.7364 20.5679 11.516C20.3697 11.2957 20.26 11.0098 20.26 10.7134C20.26 10.417 20.3697 10.1311 20.5679 9.91079C20.7661 9.69045 21.0389 9.55128 21.3337 9.52008V9.52008C21.6284 9.55128 21.9012 9.69045 22.0994 9.91079C22.2977 10.1311 22.4073 10.417 22.4073 10.7134C22.4073 11.0098 22.2977 11.2957 22.0994 11.516C21.9012 11.7364 21.6284 11.8755 21.3337 11.9067Z" fill="#B0B4BB"/>
</svg>
