<svg width="13" height="20" viewBox="0 0 13 20" fill="none" xmlns="http://www.w3.org/2000/svg">
<path fill-rule="evenodd" clip-rule="evenodd" d="M5.97053 16.7947L5.97188 16.7959C6.11905 16.9276 6.30634 17 6.5 17C6.69366 17 6.88095 16.9276 7.02812 16.7959C7.3125 16.5749 13 11.39 13 6.79998C13 4.99651 12.3152 3.26691 11.0962 1.99167C9.87721 0.716424 8.22391 0 6.5 0C4.77609 0 3.12279 0.716424 1.90381 1.99167C0.68482 3.26691 0 4.99651 0 6.79998C0 11.3818 5.70781 16.5565 5.97053 16.7947ZM6.50394 15.9266C6.54718 15.8875 6.60618 15.8334 6.68121 15.7629C6.85352 15.6008 7.08853 15.3725 7.36461 15.0888C7.91775 14.5205 8.62817 13.7379 9.32762 12.8272C10.7659 10.9546 12 8.74057 12 6.79998C12 5.24754 11.4101 3.76725 10.3733 2.68265C9.33803 1.59958 7.94376 1 6.5 1C5.05624 1 3.66197 1.59958 2.62668 2.68265C1.58992 3.76725 1 5.24754 1 6.79998C1 8.73493 2.23744 10.9435 3.67913 12.8162C4.87293 14.3669 6.09239 15.5429 6.50394 15.9266Z" fill="#F66527"/>
<path fill-rule="evenodd" clip-rule="evenodd" d="M3 19H10V20H3V19Z" fill="#F66527"/>
<path d="M6 6H7V7H6V6Z" fill="#F66527"/>
</svg>
