<svg width="32" height="32" viewBox="0 0 32 32" fill="none" xmlns="http://www.w3.org/2000/svg">
<path fill-rule="evenodd" clip-rule="evenodd" d="M4.53201 8.76096L10.5104 2.78266L16.3415 8.61382L12.8235 12.4213C12.8497 12.4877 12.8805 12.5644 12.9155 12.6499C13.0466 12.9695 13.2368 13.4109 13.473 13.897C13.9529 14.8844 14.5959 15.9988 15.2896 16.6775C15.9569 17.3303 17.0354 17.9366 17.9878 18.3895C18.4567 18.6125 18.8815 18.7922 19.189 18.916C19.273 18.9498 19.3482 18.9794 19.4129 19.0046L23.382 15.6543L29.1983 21.4705L23.2236 27.4453L22.9307 27.3481L23.0882 26.8735C22.9307 27.3481 22.9308 27.3481 22.9307 27.3481L22.9288 27.3474L22.9243 27.3459L22.9071 27.3402L22.8417 27.3179C22.7845 27.2984 22.7008 27.2696 22.5933 27.2318C22.3784 27.1561 22.0683 27.0447 21.6855 26.9006C20.9201 26.6125 19.8622 26.1934 18.6913 25.6688C16.3643 24.6262 13.535 23.1427 11.6894 21.4148C9.62285 19.4801 7.85907 16.368 6.62265 13.787C6.00044 12.4882 5.50438 11.3078 5.16379 10.452C4.99342 10.0239 4.86175 9.67658 4.77247 9.43564C4.72782 9.31516 4.69376 9.22124 4.67074 9.15711L4.64454 9.08364L4.63776 9.06439L4.63547 9.05786C4.63543 9.05773 4.63525 9.05721 5.1074 8.89268L4.63547 9.05786L4.53201 8.76096ZM5.68557 9.02161C5.69335 9.04274 5.70155 9.06493 5.71016 9.08817C5.79697 9.32244 5.92578 9.66232 6.09291 10.0822C6.42731 10.9225 6.91435 12.0813 7.52451 13.355C8.75282 15.919 10.4509 18.8855 12.3728 20.6848C14.09 22.2924 16.7892 23.7208 19.1001 24.7562C20.2482 25.2706 21.2865 25.682 22.0377 25.9647C22.4131 26.106 22.7164 26.215 22.9252 26.2884C22.9356 26.2921 22.9457 26.2956 22.9556 26.2991L27.7841 21.4706L23.3248 17.0113L19.6138 20.1437L19.3428 20.0468L19.5112 19.576C19.3428 20.0468 19.3429 20.0468 19.3428 20.0468L19.3417 20.0464L19.3396 20.0456L19.3319 20.0428L19.3035 20.0325C19.279 20.0235 19.2434 20.0103 19.1979 19.9931C19.107 19.9588 18.9764 19.9084 18.8155 19.8436C18.494 19.7141 18.0498 19.5263 17.5583 19.2926C16.5901 18.8321 15.3831 18.1679 14.5903 17.3923C13.7658 16.5857 13.0614 15.3377 12.5736 14.3341C12.326 13.8247 12.1272 13.3633 11.9903 13.0292C11.9217 12.8619 11.8685 12.7261 11.8321 12.6315C11.814 12.5842 11.8 12.5472 11.7905 12.5217L11.7796 12.4922L11.7766 12.4842L11.7758 12.4819C11.7758 12.4818 11.7754 12.4809 12.2454 12.3102L11.7754 12.4809L11.6715 12.1946L14.9547 8.64121L10.5104 4.19687L5.68557 9.02161Z" fill="#2A2B2E"/>
</svg>
