<svg width="23" height="23" viewBox="0 0 23 23" fill="none" xmlns="http://www.w3.org/2000/svg">
<path fill-rule="evenodd" clip-rule="evenodd" d="M10 19C14.9706 19 19 14.9706 19 10C19 5.02944 14.9706 1 10 1C5.02944 1 1 5.02944 1 10C1 14.9706 5.02944 19 10 19ZM10 20C15.5228 20 20 15.5228 20 10C20 4.47715 15.5228 0 10 0C4.47715 0 0 4.47715 0 10C0 15.5228 4.47715 20 10 20Z" fill="#6F7278"/>
<path fill-rule="evenodd" clip-rule="evenodd" d="M22.1464 22.8536L16.6464 17.3536L17.3536 16.6464L22.8536 22.1464L22.1464 22.8536Z" fill="#6F7278"/>
</svg>
