<svg width="32" height="32" viewBox="0 0 32 32" fill="none" xmlns="http://www.w3.org/2000/svg">
<path fill-rule="evenodd" clip-rule="evenodd" d="M15 24C19.9706 24 24 19.9706 24 15C24 10.0294 19.9706 6 15 6C10.0294 6 6 10.0294 6 15C6 19.9706 10.0294 24 15 24ZM15 25C20.5228 25 25 20.5228 25 15C25 9.47715 20.5228 5 15 5C9.47715 5 5 9.47715 5 15C5 20.5228 9.47715 25 15 25Z" fill="#6F7278"/>
<path fill-rule="evenodd" clip-rule="evenodd" d="M27.1464 27.8536L21.6464 22.3536L22.3536 21.6464L27.8536 27.1464L27.1464 27.8536Z" fill="#6F7278"/>
</svg>
