<svg width="16" height="16" viewBox="0 0 16 16" fill="none" xmlns="http://www.w3.org/2000/svg">
<path fill-rule="evenodd" clip-rule="evenodd" d="M7.99935 0.666504C10.9499 0.666504 13.3327 3.13028 13.3327 6.15857V9.17444C13.3327 11.769 11.5837 13.9491 9.22697 14.5204C9.02483 14.9978 8.55125 15.3332 7.99935 15.3332C7.26297 15.3332 6.66602 14.7362 6.66602 13.9998C6.66602 13.2635 7.26297 12.6665 7.99935 12.6665C8.42895 12.6665 8.81111 12.8697 9.05495 13.1852C10.7494 12.7054 11.9993 11.0947 11.9993 9.17444V6.15857C11.9993 3.85687 10.2034 1.99984 7.99935 1.99984C5.79529 1.99984 3.99935 3.85687 3.99935 6.15857V9.17444C3.99935 9.54263 3.70087 9.84111 3.33268 9.84111C2.96449 9.84111 2.66602 9.54263 2.66602 9.17444V6.15857C2.66602 3.13028 5.04875 0.666504 7.99935 0.666504ZM1.33268 5.33317C1.70087 5.33317 1.99935 5.63165 1.99935 5.99984V9.33317C1.99935 9.70136 1.70087 9.99984 1.33268 9.99984C0.964492 9.99984 0.666016 9.70136 0.666016 9.33317V5.99984C0.666016 5.63165 0.964492 5.33317 1.33268 5.33317ZM14.666 5.33317C15.0342 5.33317 15.3327 5.63165 15.3327 5.99984V9.33317C15.3327 9.70136 15.0342 9.99984 14.666 9.99984C14.2978 9.99984 13.9993 9.70136 13.9993 9.33317V5.99984C13.9993 5.63165 14.2978 5.33317 14.666 5.33317Z" fill="#F66527"/>
</svg>
