<svg width="32" height="32" viewBox="0 0 32 32" fill="none" xmlns="http://www.w3.org/2000/svg">
<path d="M20.0976 2.66675H11.917C4.44474 2.66675 2.66699 4.4445 2.66699 11.9028V20.0834C2.66699 27.5556 4.43091 29.3334 11.9031 29.3334H20.0837C27.5559 29.3334 29.3337 27.5695 29.3337 20.0973V11.9167C29.3337 4.4445 27.5697 2.66675 20.0976 2.66675ZM24.1947 21.6945H22.2503C21.5142 21.6945 21.292 21.0973 19.9726 19.7778C18.8197 18.6667 18.3337 18.5278 18.042 18.5278C17.6392 18.5278 17.5281 18.6389 17.5281 19.1945V20.9445C17.5281 21.4167 17.3753 21.6945 16.1392 21.6945C14.9398 21.6139 13.7766 21.2495 12.7455 20.6314C11.7144 20.0132 10.8449 19.1589 10.2087 18.1389C8.69813 16.2588 7.64713 14.0522 7.13925 11.6945C7.13925 11.4028 7.25033 11.1389 7.80591 11.1389H9.75033C10.2503 11.1389 10.4309 11.3612 10.6253 11.8751C11.5697 14.6528 13.1809 17.0695 13.8337 17.0695C14.0837 17.0695 14.1947 16.9584 14.1947 16.3334V13.4723C14.1114 12.1667 13.417 12.0556 13.417 11.5834C13.4261 11.4588 13.4835 11.3427 13.5768 11.2597C13.6702 11.1768 13.7922 11.1334 13.917 11.1389H16.9726C17.3892 11.1389 17.5281 11.3473 17.5281 11.8473V15.7084C17.5281 16.1251 17.7087 16.2639 17.8337 16.2639C18.0837 16.2639 18.2781 16.1251 18.7364 15.6667C19.7213 14.4657 20.5261 13.1275 21.1253 11.6945C21.1865 11.5221 21.3024 11.3744 21.4554 11.2741C21.6084 11.1738 21.7901 11.1263 21.9726 11.1389H23.917C24.5003 11.1389 24.6253 11.4306 24.5003 11.8473C23.7928 13.4317 22.9175 14.9357 21.8892 16.3334C21.6809 16.6528 21.5976 16.8195 21.8892 17.1945C22.0837 17.4862 22.7642 18.0556 23.2226 18.5973C23.8892 19.2622 24.4428 20.0316 24.8614 20.8751C25.0281 21.4167 24.7503 21.6945 24.1947 21.6945Z" fill="#B0B4BB"/>
<path fill-rule="evenodd" clip-rule="evenodd" d="M24.8614 20.8751C25.0281 21.4167 24.7503 21.6945 24.1947 21.6945H22.2503C21.7345 21.6945 21.471 21.4012 20.9054 20.7715C20.6639 20.5027 20.3673 20.1726 19.9726 19.7778C18.8197 18.6667 18.3337 18.5278 18.042 18.5278C17.6392 18.5278 17.5281 18.6389 17.5281 19.1945V20.9445C17.5281 21.4167 17.3753 21.6945 16.1392 21.6945C14.9398 21.6139 13.7766 21.2495 12.7455 20.6314C11.7144 20.0132 10.8449 19.1589 10.2087 18.1389C8.69813 16.2588 7.64713 14.0522 7.13925 11.6945C7.13925 11.4028 7.25033 11.1389 7.80591 11.1389H9.75033C10.2503 11.1389 10.4309 11.3612 10.6253 11.8751C11.5697 14.6528 13.1809 17.0695 13.8337 17.0695C14.0837 17.0695 14.1947 16.9584 14.1947 16.3334V13.4723C14.1435 12.6698 13.8614 12.3186 13.6516 12.0574C13.5201 11.8937 13.417 11.7653 13.417 11.5834C13.4261 11.4588 13.4835 11.3427 13.5768 11.2597C13.6702 11.1768 13.7922 11.1334 13.917 11.1389H16.9726C17.3892 11.1389 17.5281 11.3473 17.5281 11.8473V15.7084C17.5281 16.1251 17.7087 16.2639 17.8337 16.2639C18.0837 16.2639 18.2781 16.1251 18.7364 15.6667C19.7213 14.4657 20.5261 13.1275 21.1253 11.6945C21.1865 11.5221 21.3024 11.3744 21.4554 11.2741C21.6084 11.1738 21.7901 11.1263 21.9726 11.1389H23.917C24.5003 11.1389 24.6253 11.4306 24.5003 11.8473C23.7928 13.4317 22.9175 14.9357 21.8892 16.3334C21.6809 16.6528 21.5976 16.8195 21.8892 17.1945C21.9886 17.3435 22.2148 17.565 22.4734 17.8182C22.721 18.0607 22.9984 18.3323 23.2226 18.5973C23.8892 19.2622 24.4428 20.0316 24.8614 20.8751ZM23.9581 17.9186C24.6888 18.6537 25.2963 19.5019 25.7571 20.4305L25.7933 20.5033L25.8172 20.581C25.9548 21.0284 25.9862 21.6414 25.5568 22.1403C25.1618 22.5992 24.5967 22.6945 24.1947 22.6945H22.2503C21.9152 22.6945 21.6012 22.6227 21.3022 22.4647C21.0254 22.3184 20.8037 22.1197 20.6211 21.9361C20.4759 21.79 20.3164 21.6124 20.1529 21.4303C20.1151 21.3883 20.0771 21.346 20.0391 21.3038C19.828 21.0698 19.5816 20.8013 19.272 20.4915C18.9588 20.19 18.7146 19.9817 18.5281 19.838V20.9445C18.5281 21.2716 18.4776 21.9115 17.8519 22.3286C17.3849 22.6399 16.7583 22.6945 16.1392 22.6945H16.1057L16.0722 22.6922C14.7147 22.601 13.3982 22.1886 12.2313 21.489C11.0817 20.7998 10.1095 19.8512 9.39241 18.7194C7.8041 16.728 6.6982 14.3957 6.16167 11.9051L6.13925 11.801V11.6945C6.13925 11.4485 6.18125 10.9958 6.5389 10.6189C6.90231 10.236 7.39132 10.1389 7.80591 10.1389H9.75033C10.1579 10.1389 10.6009 10.2346 10.9746 10.5739C11.2962 10.8659 11.4577 11.2492 11.5606 11.5213L11.5666 11.5371L11.5721 11.5532C12.0195 12.8691 12.6246 14.096 13.1837 14.979C13.1874 14.9848 13.1911 14.9905 13.1947 14.9963V13.5066C13.1634 13.0872 13.0508 12.9189 12.9693 12.8081C12.9401 12.7685 12.911 12.7323 12.8691 12.6801L12.8597 12.6684C12.8199 12.6188 12.7584 12.5421 12.701 12.4582C12.5739 12.272 12.417 11.9794 12.417 11.5834V11.5468L12.4197 11.5102C12.4479 11.1262 12.6246 10.7682 12.9124 10.5124C13.1932 10.2627 13.5581 10.1295 13.933 10.1389H16.9726C17.3366 10.1389 17.8497 10.2344 18.2037 10.7018C18.5002 11.0932 18.5281 11.5592 18.5281 11.8473V14.2986C19.1939 13.376 19.7531 12.3797 20.1943 11.3288C20.3312 10.964 20.5807 10.6518 20.9071 10.4378C21.2312 10.2253 21.614 10.1209 22.0005 10.1389H23.917C24.3252 10.1389 24.9199 10.2359 25.2903 10.7588C25.6497 11.2662 25.5494 11.8305 25.4582 12.1346L25.4397 12.1962L25.4134 12.255C24.706 13.8392 23.8374 15.3462 22.8215 16.7522C22.8268 16.7578 22.8323 16.7636 22.8381 16.7696C22.9228 16.8583 23.0282 16.9619 23.1566 17.0877L23.185 17.1154C23.4154 17.341 23.7087 17.6281 23.9581 17.9186ZM18.5294 15.7367C18.5293 15.7367 18.5292 15.7356 18.529 15.7334ZM18.0214 19.526C18.013 19.5237 18.0091 19.5234 18.0093 19.5239C18.0095 19.5244 18.0129 19.5255 18.0193 19.5264C18.02 19.5263 18.0207 19.5261 18.0214 19.526ZM20.0976 3.66675H11.917C8.16382 3.66675 6.25404 4.13932 5.19656 5.19547C4.13955 6.25114 3.66699 8.15685 3.66699 11.9028V20.0834C3.66699 23.8378 4.13647 25.7471 5.19097 26.8043C6.24466 27.8606 8.14955 28.3334 11.9031 28.3334H20.0837C23.8381 28.3334 25.7474 27.8639 26.8045 26.8094C27.8609 25.7557 28.3337 23.8508 28.3337 20.0973V11.9167C28.3337 8.1623 27.8642 6.25303 26.8097 5.19587C25.756 4.13952 23.8511 3.66675 20.0976 3.66675ZM11.917 2.66675H20.0976C27.5697 2.66675 29.3337 4.4445 29.3337 11.9167V20.0973C29.3337 27.5695 27.5559 29.3334 20.0837 29.3334H11.9031C4.43091 29.3334 2.66699 27.5556 2.66699 20.0834V11.9028C2.66699 4.4445 4.44474 2.66675 11.917 2.66675Z" fill="#B0B4BB"/>
</svg>
