<svg width="32" height="32" viewBox="0 0 32 32" fill="none" xmlns="http://www.w3.org/2000/svg">
<path d="M30.6683 12.9466C30.7343 11.0382 30.3169 9.144 29.455 7.43998C28.8702 6.74078 28.0586 6.26893 27.1617 6.10665C23.4517 5.77001 19.7264 5.63204 16.0017 5.69331C12.2905 5.62926 8.57861 5.76278 4.88166 6.09331C4.15076 6.22627 3.47435 6.5691 2.935 7.07998C1.735 8.18665 1.60166 10.08 1.46833 11.68C1.27488 14.5567 1.27488 17.4432 1.46833 20.32C1.5069 21.2205 1.64099 22.1144 1.86833 22.9866C2.0291 23.6601 2.35436 24.2831 2.815 24.8C3.35802 25.3379 4.05018 25.7003 4.80166 25.84C7.67622 26.1948 10.5726 26.3419 13.4683 26.28C18.135 26.3466 22.2283 26.28 27.0683 25.9066C27.8383 25.7755 28.5499 25.4127 29.1083 24.8666C29.4816 24.4932 29.7604 24.0361 29.9217 23.5333C30.3985 22.0701 30.6327 20.5388 30.615 19C30.6683 18.2533 30.6683 13.7466 30.6683 12.9466ZM12.9883 19.8V11.5466L20.8817 15.6933C18.6683 16.92 15.7483 18.3066 12.9883 19.8Z" fill="#B0B4BB"/>
<path fill-rule="evenodd" clip-rule="evenodd" d="M29.6683 12.9294L29.6689 12.9121C29.7277 11.2123 29.3659 9.52483 28.6165 7.99932C28.1975 7.53509 27.6389 7.21856 27.024 7.09828C23.3652 6.76797 19.6914 6.63275 16.0181 6.69318L16.0013 6.69345L15.9844 6.69316C12.325 6.63 8.66482 6.7608 5.01927 7.08501C4.49523 7.18842 4.01089 7.43828 3.62268 7.80599L3.613 7.81516C3.21291 8.18413 2.94789 8.72293 2.77262 9.43423C2.60054 10.1326 2.53705 10.8956 2.47081 11.6918C2.46906 11.7128 2.4673 11.7339 2.46554 11.755C2.27563 14.5845 2.27581 17.4235 2.46608 20.2529L2.46689 20.265L2.46741 20.2772C2.50296 21.107 2.62651 21.9307 2.836 22.7344L2.8386 22.7444L2.841 22.7544C2.96094 23.2568 3.20117 23.7224 3.54081 24.1111C3.93126 24.4896 4.42304 24.7467 4.95662 24.8515C7.77281 25.1975 10.6102 25.3408 13.447 25.2802L13.4648 25.2798L13.4826 25.2801C18.1123 25.3462 22.1621 25.2804 26.9423 24.9134C27.4937 24.8109 28.0028 24.5474 28.405 24.1558C28.6639 23.8955 28.8573 23.5776 28.9694 23.228L28.9709 23.2235C29.4139 21.864 29.6315 20.4412 29.6151 19.0115L29.6146 18.9701L29.6175 18.9287C29.6675 18.229 29.6683 13.7812 29.6683 12.9466V12.9294ZM27.0683 25.9066C22.2283 26.28 18.135 26.3466 13.4683 26.28C10.5726 26.3419 7.67622 26.1948 4.80166 25.84C4.05018 25.7003 3.35802 25.3379 2.815 24.8C2.35436 24.2831 2.0291 23.6601 1.86833 22.9866C1.64099 22.1144 1.5069 21.2205 1.46833 20.32C1.27488 17.4432 1.27488 14.5567 1.46833 11.68C1.47114 11.6463 1.47395 11.6125 1.47676 11.5785C1.60775 10.0006 1.76027 8.16334 2.935 7.07998C3.47435 6.5691 4.15076 6.22627 4.88166 6.09331C8.57861 5.76278 12.2905 5.62926 16.0017 5.69331C19.7264 5.63204 23.4517 5.77001 27.1617 6.10665C28.0586 6.26893 28.8702 6.74078 29.455 7.43998C30.3169 9.144 30.7343 11.0382 30.6683 12.9466C30.6683 13.7466 30.6683 18.2533 30.615 19C30.6327 20.5388 30.3985 22.0701 29.9217 23.5333C29.7604 24.0361 29.4816 24.4932 29.1083 24.8666C28.5499 25.4127 27.8383 25.7755 27.0683 25.9066ZM11.9883 21.478V9.89172L22.9871 15.6698L21.3664 16.568C20.2411 17.1917 18.941 17.8534 17.5929 18.5382L17.4815 18.5948C16.1615 19.2653 14.7932 19.9604 13.4642 20.6795L11.9883 21.478ZM12.9883 11.5466L20.8817 15.6933C20.5438 15.8806 20.1894 16.0716 19.8217 16.2661C18.9507 16.7269 18.0045 17.2075 17.0242 17.7055C16.033 18.209 15.0069 18.7302 13.9883 19.2666C13.6537 19.4428 13.3199 19.6206 12.9883 19.8V11.5466Z" fill="#B0B4BB"/>
</svg>
