<svg width="341" height="427" viewBox="0 0 341 427" fill="none" xmlns="http://www.w3.org/2000/svg">
<path d="M226.769 0H296V69.2308H226.769V0Z" fill="#FFF0EA"/>
<path d="M196 69.2308H226.769V100H196V69.2308Z" fill="#FFF0EA"/>
<path d="M109.231 352H40V282.769H109.231V352Z" fill="#FFF0EA"/>
<path d="M140 282.769H109.231V252H140V282.769Z" fill="#FFF0EA"/>
<path fill-rule="evenodd" clip-rule="evenodd" d="M50.4833 170.412C50.7436 175.386 53.6481 180.417 59.4587 190.481L136.927 324.659C142.737 334.724 145.642 339.754 149.819 342.467C153.494 344.853 157.831 346.015 162.206 345.786C167.182 345.526 172.214 342.621 182.278 336.81L262.544 290.469C272.608 284.658 277.64 281.753 280.353 277.574C282.74 273.899 283.901 269.562 283.672 265.187C283.412 260.213 280.508 255.182 274.697 245.118L197.229 110.939C191.418 100.875 188.514 95.8442 184.336 93.1318C180.661 90.7455 176.325 89.5833 171.949 89.8127C166.974 90.0726 161.942 92.9776 151.878 98.7883L71.6114 145.13C61.5474 150.94 56.5153 153.846 53.8024 158.025C51.4159 161.7 50.2543 166.036 50.4833 170.412ZM73.7453 172.218C73.8319 173.876 74.8012 175.555 76.7381 178.91L86.4207 195.68C88.3576 199.035 89.3269 200.714 90.7195 201.618C91.944 202.413 93.3887 202.799 94.8485 202.724C96.5065 202.637 98.1835 201.669 101.538 199.732L184.201 152.007C187.555 150.07 189.232 149.102 190.137 147.709C190.932 146.483 191.319 145.038 191.244 143.58C191.192 142.588 190.824 141.588 190.122 140.227C189.917 139.83 189.686 139.406 189.425 138.941C189.083 138.331 188.692 137.652 188.251 136.889L178.568 120.118C177.229 117.799 176.353 116.281 175.478 115.265C175.088 114.811 174.699 114.459 174.27 114.18C173.56 113.72 172.776 113.397 171.959 113.221C171.365 113.092 170.754 113.043 170.14 113.074C168.482 113.161 166.805 114.13 163.451 116.067L80.7883 163.792C77.4335 165.729 75.7565 166.697 74.8516 168.089C74.0572 169.316 73.6695 170.76 73.7453 172.218ZM129.872 243.273C138.143 238.498 140.977 227.924 136.201 219.653C131.426 211.381 120.851 208.548 112.58 213.323C104.31 218.098 101.476 228.673 106.251 236.944C111.027 245.216 121.601 248.049 129.872 243.273ZM175.136 197.173C179.912 205.445 177.078 216.019 168.807 220.794C160.536 225.569 149.962 222.736 145.186 214.465C140.411 206.194 143.245 195.619 151.515 190.844C159.786 186.069 170.361 188.902 175.136 197.173ZM207.742 198.315C216.013 193.54 218.847 182.966 214.071 174.694C209.296 166.423 198.721 163.59 190.45 168.365C182.18 173.14 179.346 183.715 184.121 191.986C188.897 200.257 199.471 203.09 207.742 198.315ZM158.68 258.588C163.456 266.859 160.622 277.433 152.351 282.208C144.08 286.984 133.506 284.151 128.73 275.879C123.955 267.608 126.789 257.034 135.059 252.258C143.33 247.483 153.905 250.316 158.68 258.588ZM191.286 259.729C199.557 254.954 202.391 244.38 197.615 236.108C192.84 227.837 182.265 225.004 173.994 229.779C165.724 234.554 162.89 245.129 167.665 253.4C172.441 261.672 183.016 264.504 191.286 259.729ZM236.55 213.629C241.326 221.901 238.492 232.475 230.221 237.25C221.951 242.025 211.376 239.192 206.6 230.921C201.825 222.65 204.659 212.075 212.93 207.3C221.2 202.525 231.775 205.358 236.55 213.629ZM252.7 276.185C260.971 271.41 263.805 260.836 259.03 252.564C254.254 244.293 243.679 241.46 235.409 246.235C227.138 251.01 224.304 261.585 229.08 269.856C233.855 278.127 244.43 280.96 252.7 276.185ZM157.539 291.194C149.268 295.969 146.434 306.543 151.209 314.814C155.985 323.086 166.56 325.919 174.83 321.144L213.765 298.664C222.036 293.889 224.87 283.315 220.095 275.044C215.319 266.772 204.744 263.939 196.474 268.714L157.539 291.194Z" fill="#FFF0EA"/>
<path fill-rule="evenodd" clip-rule="evenodd" d="M50.4833 130.412C50.7436 135.386 53.6481 140.417 59.4587 150.481L136.927 284.659C142.737 294.724 145.642 299.754 149.819 302.467C153.494 304.853 157.831 306.015 162.206 305.786C167.182 305.526 172.214 302.621 182.278 296.81L262.544 250.469C272.608 244.658 277.64 241.753 280.353 237.574C282.74 233.899 283.901 229.562 283.672 225.187C283.412 220.213 280.508 215.182 274.697 205.118L197.229 70.9392C191.418 60.8749 188.514 55.8442 184.336 53.1318C180.661 50.7455 176.325 49.5833 171.949 49.8127C166.974 50.0726 161.942 52.9776 151.878 58.7883L71.6114 105.13C61.5474 110.94 56.5153 113.846 53.8024 118.025C51.4159 121.7 50.2543 126.036 50.4833 130.412ZM73.7453 132.218C73.8319 133.876 74.8012 135.555 76.7381 138.91L86.4207 155.68C88.3576 159.035 89.3269 160.714 90.7195 161.618C91.944 162.413 93.3887 162.799 94.8485 162.724C96.5065 162.637 98.1835 161.669 101.538 159.732L184.201 112.007C187.555 110.07 189.232 109.102 190.137 107.709C190.932 106.483 191.319 105.038 191.244 103.58C191.192 102.588 190.824 101.588 190.122 100.227C189.917 99.8304 189.686 99.4061 189.425 98.9406C189.083 98.3307 188.692 97.6521 188.251 96.8888L178.568 80.1179C177.229 77.7985 176.353 76.2806 175.478 75.2646C175.088 74.8112 174.699 74.4588 174.27 74.1802C173.56 73.7201 172.776 73.3966 171.959 73.221C171.365 73.0921 170.754 73.0431 170.14 73.0739C168.482 73.1615 166.805 74.1297 163.451 76.0666L80.7883 123.792C77.4335 125.729 75.7565 126.697 74.8516 128.089C74.0572 129.316 73.6695 130.76 73.7453 132.218ZM129.872 203.273C138.143 198.498 140.977 187.924 136.201 179.653C131.426 171.381 120.851 168.548 112.58 173.323C104.31 178.098 101.476 188.673 106.251 196.944C111.027 205.216 121.601 208.049 129.872 203.273ZM175.136 157.173C179.912 165.445 177.078 176.019 168.807 180.794C160.536 185.569 149.962 182.736 145.186 174.465C140.411 166.194 143.245 155.619 151.515 150.844C159.786 146.069 170.361 148.902 175.136 157.173ZM207.742 158.315C216.013 153.54 218.847 142.966 214.071 134.694C209.296 126.423 198.721 123.59 190.45 128.365C182.18 133.14 179.346 143.715 184.121 151.986C188.897 160.257 199.471 163.09 207.742 158.315ZM158.68 218.588C163.456 226.859 160.622 237.433 152.351 242.208C144.08 246.984 133.506 244.151 128.73 235.879C123.955 227.608 126.789 217.034 135.059 212.258C143.33 207.483 153.905 210.316 158.68 218.588ZM191.286 219.729C199.557 214.954 202.391 204.38 197.615 196.108C192.84 187.837 182.265 185.004 173.994 189.779C165.724 194.554 162.89 205.129 167.665 213.4C172.441 221.672 183.016 224.504 191.286 219.729ZM236.55 173.629C241.326 181.901 238.492 192.475 230.221 197.25C221.951 202.025 211.376 199.192 206.6 190.921C201.825 182.65 204.659 172.075 212.93 167.3C221.2 162.525 231.775 165.358 236.55 173.629ZM252.7 236.185C260.971 231.41 263.805 220.836 259.03 212.564C254.254 204.293 243.679 201.46 235.409 206.235C227.138 211.01 224.304 221.585 229.08 229.856C233.855 238.127 244.43 240.96 252.7 236.185ZM157.539 251.194C149.268 255.969 146.434 266.543 151.209 274.814C155.985 283.086 166.56 285.919 174.83 281.144L213.765 258.664C222.036 253.889 224.87 243.315 220.095 235.044C215.319 226.772 204.744 223.939 196.474 228.714L157.539 251.194Z" fill="white"/>
</svg>
