<?xml version="1.0" encoding="utf-8"?>
<!-- Generator: Adobe Illustrator 23.0.0, SVG Export Plug-In . SVG Version: 6.00 Build 0)  -->
<svg version="1.1" id="Слой_1" xmlns="http://www.w3.org/2000/svg" xmlns:xlink="http://www.w3.org/1999/xlink" x="0px" y="0px"
	viewBox="0 0 188 190" style="enable-background:new 0 0 188 190;" xml:space="preserve">
<style type="text/css">
	.st0{fill:none;stroke:#EE7038;stroke-width:38;stroke-linecap:square;stroke-miterlimit:10;}
</style>
<path class="st0" d="M169,171c0,0,0-73.80556,0-103.33334c0-2.88889,0-4,0-6.66666c0-20.37037-20.2963-42-41.55556-42
	c-2.44444,0-4.33333,0-5.77778,0C115.80556,19,99.33334,19,94,19"/>
<path class="st0" d="M19,171c0,0,0-73.80556,0-103.33334c0-2.88889,0-4,0-6.66666c0-20.37037,20.2963-42,41.55556-42
	c2.44444,0,4.33333,0,5.77778,0C72.19444,19,87.18519,19,94,19"/>
<line class="st0" x1="79" y1="121" x2="168" y2="121"/>
</svg>
