<svg width="32" height="32" viewBox="0 0 32 32" fill="none" xmlns="http://www.w3.org/2000/svg">
<path d="M16.0046 2C10.1597 2 8.4503 2.00603 8.11802 2.0336C6.91856 2.13333 6.17217 2.32224 5.35903 2.7272C4.73238 3.03846 4.23817 3.39926 3.75041 3.90502C2.86212 4.82738 2.32376 5.96212 2.12887 7.31097C2.03412 7.9658 2.00656 8.09935 2.00096 11.4441C1.9988 12.559 2.00096 14.0264 2.00096 15.9945C2.00096 21.8362 2.00742 23.5444 2.03541 23.8761C2.13232 25.0436 2.31536 25.7781 2.70298 26.5816C3.44376 28.1195 4.85857 29.2741 6.52534 29.7049C7.10246 29.8535 7.73988 29.9354 8.55819 29.9742C8.90489 29.9892 12.4387 30 15.9746 30C19.5106 30 23.0465 29.9957 23.3846 29.9785C24.3321 29.9339 24.8823 29.86 25.4907 29.7027C27.1682 29.2698 28.5572 28.1325 29.3131 26.5729C29.6931 25.7889 29.8859 25.0263 29.9731 23.9198C29.992 23.6786 30 19.8321 30 15.9908C30 12.1489 29.9914 8.30958 29.9724 8.06833C29.8841 6.94393 29.6914 6.18786 29.2991 5.38872C28.9771 4.73454 28.6196 4.24601 28.1007 3.74649C27.1745 2.86161 26.0418 2.3231 24.692 2.12838C24.038 2.03382 23.9077 2.00582 20.5613 2H16.0046Z" fill="url(#paint0_radial)"/>
<path d="M16.0046 2C10.1597 2 8.4503 2.00603 8.11802 2.0336C6.91856 2.13333 6.17217 2.32224 5.35903 2.7272C4.73238 3.03846 4.23817 3.39926 3.75041 3.90502C2.86212 4.82738 2.32376 5.96212 2.12887 7.31097C2.03412 7.9658 2.00656 8.09935 2.00096 11.4441C1.9988 12.559 2.00096 14.0264 2.00096 15.9945C2.00096 21.8362 2.00742 23.5444 2.03541 23.8761C2.13232 25.0436 2.31536 25.7781 2.70298 26.5816C3.44376 28.1195 4.85857 29.2741 6.52534 29.7049C7.10246 29.8535 7.73988 29.9354 8.55819 29.9742C8.90489 29.9892 12.4387 30 15.9746 30C19.5106 30 23.0465 29.9957 23.3846 29.9785C24.3321 29.9339 24.8823 29.86 25.4907 29.7027C27.1682 29.2698 28.5572 28.1325 29.3131 26.5729C29.6931 25.7889 29.8859 25.0263 29.9731 23.9198C29.992 23.6786 30 19.8321 30 15.9908C30 12.1489 29.9914 8.30958 29.9724 8.06833C29.8841 6.94393 29.6914 6.18786 29.2991 5.38872C28.9771 4.73454 28.6196 4.24601 28.1007 3.74649C27.1745 2.86161 26.0418 2.3231 24.692 2.12838C24.038 2.03382 23.9077 2.00582 20.5613 2H16.0046Z" fill="url(#paint1_radial)"/>
<path d="M16.0009 6C13.2851 6 12.9442 6.01188 11.8776 6.06042C10.813 6.10917 10.0863 6.27771 9.45045 6.525C8.79274 6.78042 8.23481 7.12208 7.67898 7.67813C7.12272 8.23396 6.78105 8.79187 6.5248 9.44937C6.27688 10.0854 6.10813 10.8123 6.06021 11.8765C6.0125 12.9431 6 13.2842 6 16C6 18.7158 6.01208 19.0556 6.06042 20.1223C6.10938 21.1869 6.27792 21.9135 6.52501 22.5494C6.78063 23.2071 7.1223 23.765 7.67835 24.3208C8.23398 24.8771 8.7919 25.2196 9.4492 25.475C10.0855 25.7223 10.8123 25.8908 11.8767 25.9396C12.9434 25.9881 13.284 26 15.9997 26C18.7158 26 19.0556 25.9881 20.1222 25.9396C21.1868 25.8908 21.9143 25.7223 22.5506 25.475C23.2081 25.2196 23.7652 24.8771 24.3208 24.3208C24.8771 23.765 25.2187 23.2071 25.475 22.5496C25.7208 21.9135 25.8896 21.1867 25.9396 20.1225C25.9875 19.0558 26 18.7158 26 16C26 13.2842 25.9875 12.9433 25.9396 11.8767C25.8896 10.8121 25.7208 10.0854 25.475 9.44958C25.2187 8.79187 24.8771 8.23396 24.3208 7.67813C23.7646 7.12188 23.2083 6.78021 22.55 6.525C21.9125 6.27771 21.1854 6.10917 20.1208 6.06042C19.0541 6.01188 18.7145 6 15.9978 6H16.0009ZM15.1038 7.80208C15.3701 7.80167 15.6672 7.80208 16.0009 7.80208C18.671 7.80208 18.9874 7.81167 20.0418 7.85958C21.0168 7.90417 21.546 8.06708 21.8985 8.20396C22.3652 8.38521 22.6979 8.60187 23.0477 8.95187C23.3977 9.30187 23.6143 9.63521 23.796 10.1019C23.9329 10.454 24.096 10.9831 24.1404 11.9581C24.1883 13.0123 24.1987 13.329 24.1987 15.9977C24.1987 18.6665 24.1883 18.9831 24.1404 20.0373C24.0958 21.0123 23.9329 21.5415 23.796 21.8935C23.6148 22.3602 23.3977 22.6925 23.0477 23.0423C22.6977 23.3923 22.3654 23.609 21.8985 23.7902C21.5464 23.9277 21.0168 24.0902 20.0418 24.1348C18.9876 24.1827 18.671 24.1931 16.0009 24.1931C13.3307 24.1931 13.0142 24.1827 11.9601 24.1348C10.9851 24.0898 10.4559 23.9269 10.1032 23.79C9.6365 23.6087 9.30316 23.3921 8.95316 23.0421C8.60315 22.6921 8.38648 22.3596 8.20481 21.8927C8.06794 21.5406 7.90481 21.0115 7.86044 20.0365C7.81252 18.9823 7.80294 18.6656 7.80294 15.9952C7.80294 13.3248 7.81252 13.0098 7.86044 11.9556C7.90502 10.9806 8.06794 10.4515 8.20481 10.099C8.38607 9.63229 8.60315 9.29896 8.95316 8.94896C9.30316 8.59896 9.6365 8.38229 10.1032 8.20062C10.4557 8.06312 10.9851 7.90063 11.9601 7.85583C12.8826 7.81417 13.2401 7.80167 15.1038 7.79958V7.80208ZM21.3389 9.4625C20.6764 9.4625 20.1389 9.99937 20.1389 10.6621C20.1389 11.3246 20.6764 11.8621 21.3389 11.8621C22.0014 11.8621 22.5389 11.3246 22.5389 10.6621C22.5389 9.99958 22.0014 9.46208 21.3389 9.46208V9.4625ZM16.0009 10.8646C13.1649 10.8646 10.8655 13.164 10.8655 16C10.8655 18.836 13.1649 21.1344 16.0009 21.1344C18.837 21.1344 21.1356 18.836 21.1356 16C21.1356 13.164 18.8368 10.8646 16.0007 10.8646H16.0009ZM16.0009 12.6667C17.8418 12.6667 19.3343 14.159 19.3343 16C19.3343 17.8408 17.8418 19.3333 16.0009 19.3333C14.1599 19.3333 12.6676 17.8408 12.6676 16C12.6676 14.159 14.1599 12.6667 16.0009 12.6667V12.6667Z" fill="white"/>
<defs>
<radialGradient id="paint0_radial" cx="0" cy="0" r="1" gradientUnits="userSpaceOnUse" gradientTransform="translate(9.43754 32.1566) rotate(-90) scale(27.7501 25.8097)">
<stop stop-color="#FFDD55"/>
<stop offset="0.1" stop-color="#FFDD55"/>
<stop offset="0.5" stop-color="#FF543E"/>
<stop offset="1" stop-color="#C837AB"/>
</radialGradient>
<radialGradient id="paint1_radial" cx="0" cy="0" r="1" gradientUnits="userSpaceOnUse" gradientTransform="translate(-2.69015 4.01707) rotate(78.6806) scale(12.4044 51.1314)">
<stop stop-color="#3771C8"/>
<stop offset="0.128" stop-color="#3771C8"/>
<stop offset="1" stop-color="#6600FF" stop-opacity="0"/>
</radialGradient>
</defs>
</svg>
