<svg width="1270" height="178" viewBox="0 0 1270 178" fill="none" xmlns="http://www.w3.org/2000/svg">
<g clip-path="url(#clip0)">
<path d="M164.222 164.888C164.222 164.888 164.222 91.0821 164.222 61.5544C164.222 58.6655 164.222 57.5544 164.222 54.8877C164.222 34.5173 143.926 12.8877 122.667 12.8877C120.222 12.8877 118.333 12.8877 116.889 12.8877C111.028 12.8877 94.5556 12.8877 89.2222 12.8877" stroke="#EE7038" stroke-width="25" stroke-miterlimit="10" stroke-linecap="square"/>
<path d="M14.2222 164.888C14.2222 164.888 14.2222 91.0821 14.2222 61.5544C14.2222 58.6655 14.2222 57.5544 14.2222 54.8877C14.2222 34.5173 34.5185 12.8877 55.7778 12.8877C58.2222 12.8877 60.1111 12.8877 61.5556 12.8877C67.4167 12.8877 82.4074 12.8877 89.2222 12.8877" stroke="#EE7038" stroke-width="25" stroke-miterlimit="10" stroke-linecap="square"/>
<path d="M63.2222 114.888H163.222" stroke="#EE7038" stroke-width="25" stroke-miterlimit="10" stroke-linecap="square"/>
<path d="M267.222 12.8877C267.222 12.8877 363.028 12.8877 368.889 12.8877C370.333 12.8877 372.222 12.8877 374.667 12.8877C395.926 12.8877 412.886 34.7923 416.222 54.8877C416.925 59.119 416.995 68.073 416.222 72.8877C412.994 93.0007 395.926 114.888 374.667 114.888C372.222 114.888 370.333 114.888 368.889 114.888C363.028 114.888 267.222 114.888 267.222 114.888" stroke="#737879" stroke-width="25" stroke-miterlimit="10" stroke-linecap="square"/>
<path d="M266.222 12.8877C266.222 53.8877 266.222 164.888 266.222 164.888" stroke="#737879" stroke-width="25" stroke-miterlimit="10" stroke-linecap="square"/>
<path d="M466.222 12.8877V164.888" stroke="#737879" stroke-width="25" stroke-miterlimit="10" stroke-linecap="square"/>
<path d="M614.222 164.888H466.222" stroke="#737879" stroke-width="25" stroke-miterlimit="10" stroke-linecap="square"/>
<path d="M663.222 12.8877V164.888" stroke="#737879" stroke-width="25" stroke-miterlimit="10" stroke-linecap="square"/>
<path d="M713.222 12.8877H861.222" stroke="#737879" stroke-width="25" stroke-miterlimit="10" stroke-linecap="square"/>
<path d="M787.222 164.888V13.8877" stroke="#737879" stroke-width="25" stroke-miterlimit="10" stroke-linecap="square"/>
<path d="M910.222 12.8877V164.888" stroke="#737879" stroke-width="25" stroke-miterlimit="10" stroke-linecap="square"/>
<path d="M944.222 88.8877H912.222" stroke="#737879" stroke-width="25" stroke-miterlimit="10" stroke-linecap="square"/>
<path d="M1071.33 195.777L944.223 88.8882L1065.55 -12.5996" stroke="#737879" stroke-width="25" stroke-miterlimit="10" stroke-linejoin="bevel"/>
<path d="M1256.22 164.888C1256.22 164.888 1256.22 91.0821 1256.22 61.5544C1256.22 58.6655 1256.22 57.5544 1256.22 54.8877C1256.22 34.5173 1235.93 12.8877 1214.67 12.8877C1212.22 12.8877 1210.33 12.8877 1208.89 12.8877C1203.03 12.8877 1181.22 12.8877 1181.22 12.8877" stroke="#737879" stroke-width="25" stroke-miterlimit="10" stroke-linecap="square"/>
<path d="M1106.22 164.888C1106.22 164.888 1106.22 91.0821 1106.22 61.5544C1106.22 58.6655 1106.22 57.5544 1106.22 54.8877C1106.22 34.5173 1126.52 12.8877 1147.78 12.8877C1150.22 12.8877 1152.11 12.8877 1153.56 12.8877C1159.42 12.8877 1181.22 12.8877 1181.22 12.8877" stroke="#737879" stroke-width="25" stroke-miterlimit="10" stroke-linecap="square"/>
<path d="M1155.22 114.888H1255.22" stroke="#737879" stroke-width="25" stroke-miterlimit="10" stroke-linecap="square"/>
</g>
<defs>
<clipPath id="clip0">
<rect width="1269.37" height="177.11" fill="white"/>
</clipPath>
</defs>
</svg>
