<svg width="255" height="36" viewBox="0 0 255 36" fill="none" xmlns="http://www.w3.org/2000/svg">
<path d="M30.5 20.5V25.5H7.5V20.5H30.5Z" fill="#F66527"/>
<path fill-rule="evenodd" clip-rule="evenodd" d="M11.5 5C7.9101 5 5 7.9101 5 11.5V35.5H0V11.5C0 5.1487 5.1487 0 11.5 0H23.5C29.8513 0 35 5.1487 35 11.5V35.5H30V11.5C30 7.9101 27.0898 5 23.5 5H11.5Z" fill="#F66527"/>
<path d="M50.5 0.5H55.5V35.5H50.5V0.5Z" fill="#7E7E7E"/>
<path d="M125.5 30.5V35.5H90.5V30.5H125.5Z" fill="#7E7E7E"/>
<path d="M175.5 0.5V5.5H140.5V0.5H175.5Z" fill="#7E7E7E"/>
<path d="M197.5 15.5V20.5H180.5V15.5H197.5Z" fill="#7E7E7E"/>
<path d="M90.5 0.5H95.5V35.5H90.5V0.5Z" fill="#7E7E7E"/>
<path d="M130.5 0.5H135.5V35.5H130.5V0.5Z" fill="#7E7E7E"/>
<path d="M156.5 0.5H161.5V35.5H156.5V0.5Z" fill="#7E7E7E"/>
<path d="M180.5 0.5H185.5V35.5H180.5V0.5Z" fill="#7E7E7E"/>
<path d="M250 20.5V25.5H224.5V20.5H250Z" fill="#7E7E7E"/>
<path fill-rule="evenodd" clip-rule="evenodd" d="M231 5C227.41 5 224.5 7.9101 224.5 11.5V35.5H219.5V11.5C219.5 5.1487 224.649 0 231 0H243C249.351 0 254.5 5.1487 254.5 11.5V35.5H249.5V11.5C249.5 7.9101 246.59 5 243 5H231Z" fill="#7E7E7E"/>
<path fill-rule="evenodd" clip-rule="evenodd" d="M80.5 11.5C80.5 8.7386 78.2614 6.5 75.5 6.5H51.5V0.5H75.5C81.5751 0.5 86.5 5.4249 86.5 11.5V14.5C86.5 20.5751 81.5751 25.5 75.5 25.5H51.5V19.5H75.5C78.2614 19.5 80.5 17.2614 80.5 14.5V11.5Z" fill="#7E7E7E"/>
<path d="M208.521 0.5L193.5 15.5209L197.036 19.0564L215.43 0.662001L215.268 0.5H208.521Z" fill="#7E7E7E"/>
<path d="M208.521 35.0564L193.5 20.0355L197.036 16.5L215.43 34.8944L215.268 35.0564H208.521Z" fill="#7E7E7E"/>
</svg>
