<svg width="161" height="24" viewBox="0 0 161 24" fill="none" xmlns="http://www.w3.org/2000/svg">
<path fill-rule="evenodd" clip-rule="evenodd" d="M3.89718 6.31281C4.27369 6.31056 5.39265 6.20978 5.86662 7.80943C6.1859 8.88698 6.69448 10.652 7.39237 13.1046H7.67659C8.42502 10.5189 8.93915 8.75387 9.21898 7.80943C9.69789 6.19312 10.8952 6.31285 11.3741 6.31285L15.069 6.31285V17.8066H11.303V11.0331H11.0505L8.95117 17.8066H6.11779L4.01847 11.0281H3.76593V17.8066H0V6.31285L3.89718 6.31281ZM20.4768 6.31285V13.0914H20.7772L23.3308 7.51744C23.8265 6.40821 24.883 6.31285 24.883 6.31285H28.5273V17.8066H24.6827V11.0281H24.3823L21.8788 16.6021C21.3831 17.7063 20.2765 17.8066 20.2765 17.8066H16.6322V6.31285H20.4768ZM41.8159 11.7748C41.2796 13.2945 39.5955 14.3828 37.731 14.3828H33.6992V17.8066H30.0432V11.7748H41.8159Z" fill="#00B24D"/>
<path fill-rule="evenodd" clip-rule="evenodd" d="M37.6847 6.31274H29.6289C29.8206 8.87165 32.0243 11.0622 34.3055 11.0622H41.8474C42.2826 8.93549 40.7844 6.31274 37.6847 6.31274Z" fill="url(#paint0_linear)"/>
<path d="M81.2601 17.9556H78.2207L80.1218 6.20081H83.161L81.2601 17.9556Z" fill="#00579F"/>
<path d="M92.2776 6.48769C91.6781 6.24985 90.7272 5.98724 89.5515 5.98724C86.5499 5.98724 84.4363 7.58781 84.4233 9.87615C84.3984 11.5645 85.9366 12.5022 87.0871 13.0652C88.263 13.6404 88.6628 14.0159 88.6628 14.5286C88.6508 15.3161 87.7126 15.6791 86.8375 15.6791C85.624 15.6791 84.9738 15.4919 83.9857 15.0538L83.5855 14.866L83.1602 17.5047C83.873 17.8295 85.1864 18.1177 86.5499 18.1303C89.7391 18.1303 91.8154 16.5545 91.84 14.1159C91.8521 12.7778 91.0399 11.7525 89.2887 10.9146C88.2256 10.3768 87.5746 10.0141 87.5746 9.46379C87.5871 8.96351 88.1253 8.45109 89.3253 8.45109C90.3134 8.42599 91.0394 8.6635 91.5893 8.90118L91.8642 9.026L92.2776 6.48769V6.48769Z" fill="#00579F"/>
<path d="M96.3158 13.7913C96.5661 13.116 97.5292 10.5024 97.5292 10.5024C97.5166 10.5275 97.7791 9.81464 97.9291 9.37702L98.1415 10.3899C98.1415 10.3899 98.7171 13.2036 98.8421 13.7913C98.3671 13.7913 96.9161 13.7913 96.3158 13.7913ZM100.068 6.20081H97.7166C96.9916 6.20081 96.4408 6.41322 96.128 7.17611L91.6133 17.9554H94.8025C94.8025 17.9554 95.3275 16.5046 95.4404 16.1922C95.7902 16.1922 98.8926 16.1922 99.3427 16.1922C99.43 16.6048 99.7054 17.9554 99.7054 17.9554H102.52L100.068 6.20081V6.20081Z" fill="#00579F"/>
<path d="M75.6818 6.20081L72.7052 14.2165L72.3799 12.5908C71.8296 10.715 70.1037 8.67695 68.1777 7.66359L70.9042 17.9431H74.1183L78.8957 6.20081H75.6818V6.20081Z" fill="#00579F"/>
<path d="M69.9402 6.20081H65.05L65 6.43831C68.8146 7.41378 71.341 9.76511 72.3789 12.5913L71.3159 7.1889C71.1408 6.43815 70.603 6.22557 69.9402 6.20081Z" fill="#FAA61A"/>
<path d="M160.328 21.8445V21.8969H160.376C160.387 21.8969 160.396 21.8943 160.403 21.8903C160.409 21.8862 160.412 21.8791 160.412 21.8704C160.412 21.8618 160.409 21.8552 160.403 21.8511C160.396 21.8466 160.387 21.8445 160.376 21.8445H160.328ZM160.377 21.8079C160.402 21.8079 160.421 21.8135 160.435 21.8247C160.448 21.8359 160.455 21.8511 160.455 21.8704C160.455 21.8867 160.45 21.8999 160.439 21.9106C160.428 21.9208 160.413 21.9274 160.392 21.9299L160.456 22.0036H160.407L160.347 21.9304H160.328V22.0036H160.286V21.8079H160.377ZM160.364 22.0712C160.387 22.0712 160.408 22.0666 160.427 22.058C160.447 22.0493 160.465 22.0376 160.479 22.0229C160.494 22.0082 160.506 21.9909 160.514 21.9706C160.522 21.9507 160.527 21.9294 160.527 21.9065C160.527 21.8837 160.522 21.8623 160.514 21.8425C160.506 21.8227 160.494 21.8049 160.479 21.7901C160.465 21.7754 160.447 21.7637 160.427 21.7551C160.408 21.7469 160.387 21.7429 160.364 21.7429C160.341 21.7429 160.319 21.7469 160.299 21.7551C160.279 21.7637 160.261 21.7754 160.247 21.7901C160.232 21.8049 160.22 21.8227 160.212 21.8425C160.203 21.8623 160.199 21.8837 160.199 21.9065C160.199 21.9294 160.203 21.9507 160.212 21.9706C160.22 21.9909 160.232 22.0082 160.247 22.0229C160.261 22.0376 160.279 22.0493 160.299 22.058C160.319 22.0666 160.341 22.0712 160.364 22.0712V22.0712ZM160.364 21.6956C160.394 21.6956 160.421 21.7012 160.448 21.7124C160.474 21.7231 160.496 21.7383 160.516 21.7576C160.535 21.7764 160.55 21.7988 160.562 21.8247C160.573 21.8501 160.578 21.8776 160.578 21.9065C160.578 21.9355 160.573 21.9629 160.562 21.9883C160.55 22.0138 160.535 22.0361 160.516 22.0554C160.496 22.0742 160.474 22.0895 160.448 22.1007C160.421 22.1118 160.394 22.1174 160.364 22.1174C160.333 22.1174 160.305 22.1118 160.279 22.1007C160.253 22.0895 160.23 22.0742 160.21 22.0554C160.191 22.0361 160.176 22.0138 160.165 21.9883C160.154 21.9629 160.148 21.9355 160.148 21.9065C160.148 21.8776 160.154 21.8501 160.165 21.8247C160.176 21.7988 160.191 21.7764 160.21 21.7576C160.23 21.7383 160.253 21.7231 160.279 21.7124C160.305 21.7012 160.333 21.6956 160.364 21.6956V21.6956ZM140.564 20.9419C140.564 20.5689 140.808 20.2625 141.207 20.2625C141.589 20.2625 141.847 20.5557 141.847 20.9419C141.847 21.3282 141.589 21.6214 141.207 21.6214C140.808 21.6214 140.564 21.315 140.564 20.9419V20.9419ZM142.282 20.9419V19.8808H141.82V20.1385C141.674 19.9474 141.452 19.8274 141.15 19.8274C140.555 19.8274 140.088 20.294 140.088 20.9419C140.088 21.5904 140.555 22.0564 141.15 22.0564C141.452 22.0564 141.674 21.9365 141.82 21.7454V22.0031H142.282V20.9419ZM157.876 20.9419C157.876 20.5689 158.12 20.2625 158.52 20.2625C158.902 20.2625 159.159 20.5557 159.159 20.9419C159.159 21.3282 158.902 21.6214 158.52 21.6214C158.12 21.6214 157.876 21.315 157.876 20.9419ZM159.594 20.9419V19.0285H159.133V20.1385C158.986 19.9474 158.764 19.8274 158.462 19.8274C157.867 19.8274 157.401 20.294 157.401 20.9419C157.401 21.5904 157.867 22.0564 158.462 22.0564C158.764 22.0564 158.986 21.9365 159.133 21.7454V22.0031H159.594V20.9419ZM148.01 20.2406C148.307 20.2406 148.498 20.4271 148.547 20.7554H147.446C147.495 20.449 147.681 20.2406 148.01 20.2406ZM148.019 19.8274C147.397 19.8274 146.962 20.2803 146.962 20.9419C146.962 21.6168 147.415 22.0564 148.05 22.0564C148.37 22.0564 148.662 21.9767 148.92 21.7591L148.694 21.4171C148.516 21.5589 148.289 21.6392 148.076 21.6392C147.779 21.6392 147.508 21.5015 147.442 21.1193H149.018C149.022 21.0619 149.027 21.0039 149.027 20.9419C149.022 20.2803 148.614 19.8274 148.019 19.8274ZM153.591 20.9419C153.591 20.5689 153.835 20.2625 154.235 20.2625C154.617 20.2625 154.874 20.5557 154.874 20.9419C154.874 21.3282 154.617 21.6214 154.235 21.6214C153.835 21.6214 153.591 21.315 153.591 20.9419V20.9419ZM155.309 20.9419V19.8808H154.848V20.1385C154.701 19.9474 154.479 19.8274 154.177 19.8274C153.582 19.8274 153.116 20.294 153.116 20.9419C153.116 21.5904 153.582 22.0564 154.177 22.0564C154.479 22.0564 154.701 21.9365 154.848 21.7454V22.0031H155.309V20.9419ZM150.985 20.9419C150.985 21.5858 151.433 22.0564 152.117 22.0564C152.437 22.0564 152.65 21.9853 152.881 21.8034L152.659 21.4303C152.486 21.5548 152.304 21.6214 152.103 21.6214C151.735 21.6168 151.464 21.3505 151.464 20.9419C151.464 20.5333 151.735 20.267 152.103 20.2625C152.304 20.2625 152.486 20.329 152.659 20.4536L152.881 20.0805C152.65 19.8986 152.437 19.8274 152.117 19.8274C151.433 19.8274 150.985 20.298 150.985 20.9419V20.9419ZM156.935 19.8274C156.668 19.8274 156.495 19.952 156.375 20.1385V19.8808H155.918V22.0031H156.38V20.8134C156.38 20.4622 156.531 20.267 156.832 20.267C156.926 20.267 157.023 20.2803 157.121 20.3204L157.263 19.8854C157.161 19.8452 157.028 19.8274 156.935 19.8274V19.8274ZM144.564 20.0495C144.342 19.9032 144.036 19.8274 143.699 19.8274C143.161 19.8274 142.815 20.0851 142.815 20.5069C142.815 20.853 143.073 21.0665 143.547 21.133L143.765 21.164C144.018 21.1996 144.138 21.2662 144.138 21.3861C144.138 21.5503 143.969 21.6438 143.654 21.6438C143.334 21.6438 143.104 21.5416 142.948 21.4217L142.731 21.781C142.984 21.9675 143.303 22.0564 143.649 22.0564C144.262 22.0564 144.618 21.7678 144.618 21.3638C144.618 20.9907 144.338 20.7956 143.876 20.729L143.659 20.6975C143.459 20.6711 143.299 20.6314 143.299 20.4891C143.299 20.3336 143.45 20.2406 143.703 20.2406C143.974 20.2406 144.236 20.3428 144.364 20.4226L144.564 20.0495ZM150.518 19.8274C150.252 19.8274 150.079 19.952 149.959 20.1385V19.8808H149.502V22.0031H149.963V20.8134C149.963 20.4622 150.114 20.267 150.416 20.267C150.51 20.267 150.607 20.2803 150.705 20.3204L150.847 19.8854C150.745 19.8452 150.612 19.8274 150.518 19.8274V19.8274ZM146.58 19.8808H145.826V19.2369H145.359V19.8808H144.929V20.3026H145.359V21.2708C145.359 21.7632 145.55 22.0564 146.096 22.0564C146.296 22.0564 146.527 21.9944 146.673 21.8923L146.54 21.4969C146.402 21.5767 146.251 21.6168 146.132 21.6168C145.901 21.6168 145.826 21.4745 145.826 21.2616V20.3026H146.58V19.8808ZM139.68 22.0031V20.6711C139.68 20.1695 139.361 19.832 138.845 19.8274C138.574 19.8229 138.295 19.9072 138.099 20.205C137.953 19.9697 137.722 19.8274 137.398 19.8274C137.171 19.8274 136.95 19.894 136.776 20.1425V19.8808H136.314V22.0031H136.78V20.8266C136.78 20.4581 136.985 20.2625 137.3 20.2625C137.607 20.2625 137.762 20.4622 137.762 20.822V22.0031H138.228V20.8266C138.228 20.4581 138.441 20.2625 138.748 20.2625C139.063 20.2625 139.214 20.4622 139.214 20.822V22.0031H139.68Z" fill="#231F20"/>
<path d="M160.613 14.9453V14.6353H160.532L160.439 14.8482L160.346 14.6353H160.264V14.9453H160.322V14.7115L160.409 14.9133H160.468L160.556 14.711V14.9453H160.613ZM160.1 14.9453V14.6882H160.204V14.6358H159.939V14.6882H160.043V14.9453H160.1Z" fill="#F79410"/>
<path d="M151.425 16.2786H144.432V3.70959H151.425V16.2786Z" fill="#FF5F00"/>
<path d="M144.88 9.99356C144.88 7.44388 146.073 5.17269 147.932 3.70905C146.573 2.63876 144.857 1.99994 142.993 1.99994C138.578 1.99994 135 5.57875 135 9.99356C135 14.4084 138.578 17.9872 142.993 17.9872C144.857 17.9872 146.573 17.3484 147.932 16.2781C146.073 14.8144 144.88 12.5432 144.88 9.99356Z" fill="#EB001B"/>
<path d="M160.859 9.99356C160.859 14.4084 157.28 17.9872 152.866 17.9872C151.001 17.9872 149.286 17.3484 147.926 16.2781C149.785 14.8144 150.979 12.5432 150.979 9.99356C150.979 7.44388 149.785 5.17269 147.926 3.70905C149.286 2.63876 151.001 1.99994 152.866 1.99994C157.28 1.99994 160.859 5.57875 160.859 9.99356Z" fill="#F79E1B"/>
<defs>
<linearGradient id="paint0_linear" x1="41.9214" y1="9.30038" x2="29.6289" y2="9.30038" gradientUnits="userSpaceOnUse">
<stop stop-color="#1F5CD7"/>
<stop offset="1" stop-color="#02AEFF"/>
</linearGradient>
</defs>
</svg>
