<svg width="32" height="32" viewBox="0 0 32 32" fill="none" xmlns="http://www.w3.org/2000/svg">
<g clip-path="url(#clip0)">
<path d="M0 15.3333C0 8.10513 0 4.49103 2.24551 2.24551C4.49103 0 8.10513 0 15.3333 0H16.6667C23.8949 0 27.509 0 29.7545 2.24551C32 4.49103 32 8.10513 32 15.3333V16.6667C32 23.8949 32 27.509 29.7545 29.7545C27.509 32 23.8949 32 16.6667 32H15.3333C8.10513 32 4.49103 32 2.24551 29.7545C0 27.509 0 23.8949 0 16.6667L0 15.3333Z" fill="#2787F5"/>
<path fill-rule="evenodd" clip-rule="evenodd" d="M8.66727 10H6.3334C5.66658 10 5.5332 10.3139 5.5332 10.6599C5.5332 11.2779 6.32444 14.3432 9.21734 18.3973C11.1459 21.1659 13.8631 22.6667 16.3357 22.6667C17.8193 22.6667 18.0028 22.3333 18.0028 21.7592V19.6667C18.0028 19 18.1433 18.8669 18.6131 18.8669C18.9593 18.8669 19.5527 19.04 20.9373 20.3749C22.5198 21.9569 22.7807 22.6667 23.6707 22.6667H26.0046C26.6715 22.6667 27.0049 22.3333 26.8125 21.6755C26.6021 21.0199 25.8465 20.0687 24.844 18.9411C24.3 18.2984 23.4841 17.6063 23.2368 17.2601C22.8907 16.8152 22.9895 16.6174 23.2368 16.2219C23.2368 16.2219 26.0803 12.2173 26.377 10.8577C26.5253 10.3633 26.377 10 25.6712 10H23.3373C22.7439 10 22.4703 10.3139 22.3219 10.6599C22.3219 10.6599 21.1351 13.5521 19.4538 15.4309C18.9098 15.9747 18.6625 16.1477 18.3658 16.1477C18.2175 16.1477 18.0027 15.9747 18.0027 15.4803V10.8577C18.0027 10.2644 17.8305 10 17.3359 10H13.6684C13.2976 10 13.0745 10.2753 13.0745 10.5363C13.0745 11.0987 13.9152 11.2285 14.0019 12.8105V16.2467C14.0019 17 13.8657 17.1366 13.5691 17.1366C12.7779 17.1366 10.8533 14.2314 9.7118 10.9071C9.48814 10.261 9.26374 10 8.66727 10V10Z" fill="white"/>
</g>
<defs>
<clipPath id="clip0">
<rect width="32" height="32" fill="white"/>
</clipPath>
</defs>
</svg>
