<svg width="32" height="32" viewBox="0 0 32 32" fill="none" xmlns="http://www.w3.org/2000/svg">
<path d="M30.0543 8.89381C29.717 7.62348 28.7231 6.62315 27.4608 6.28365C25.1735 5.66665 16.0007 5.66665 16.0007 5.66665C16.0007 5.66665 6.82782 5.66665 4.54032 6.28365C3.27815 6.62315 2.28415 7.62348 1.94682 8.89381C1.33398 11.1961 1.33398 16 1.33398 16C1.33398 16 1.33398 20.8036 1.94682 23.1063C2.28415 24.3765 3.27815 25.3768 4.54032 25.7165C6.82782 26.3333 16.0007 26.3333 16.0007 26.3333C16.0007 26.3333 25.1735 26.3333 27.4608 25.7165C28.7231 25.3768 29.717 24.3765 30.0543 23.1063C30.6673 20.8036 30.6673 16 30.6673 16C30.6673 16 30.6673 11.1961 30.0543 8.89381" fill="#FF0000"/>
<path d="M13 20.3615L20.6667 16.0002L13 11.6385V20.3615Z" fill="white"/>
</svg>
