<svg width="40" height="40" viewBox="0 0 40 40" fill="none" xmlns="http://www.w3.org/2000/svg">
<path d="M1.33328 35.2H38.6666C38.9933 35.2 39.2499 34.9458 39.2499 34.6222V11.5111C39.2499 11.488 39.2383 11.4764 39.2383 11.4649C39.2383 11.4302 39.2266 11.384 39.2149 11.3493C39.2033 11.3147 39.1916 11.28 39.1683 11.2453C39.1566 11.2338 39.1566 11.2107 39.1449 11.1991L34.4783 4.26578C34.3733 4.09244 34.1983 4 33.9999 4H23.4999H16.4999H5.99995C5.80161 4 5.62661 4.09244 5.50995 4.25422L0.843281 11.1876C0.831615 11.1991 0.831615 11.2222 0.819948 11.2338C0.796615 11.2684 0.784948 11.3031 0.773281 11.3378C0.761615 11.3724 0.749948 11.4071 0.749948 11.4533C0.749948 11.4764 0.738281 11.488 0.738281 11.4996V34.6107C0.749948 34.9458 1.00661 35.2 1.33328 35.2ZM24.0833 5.15556H33.6849L37.57 10.9333H24.0833V5.15556ZM17.0833 11.5111V5.15556H22.9166V11.5111V15.8907L20.4083 13.4062C20.1749 13.1751 19.8133 13.1751 19.5799 13.4062L17.0716 15.8907V11.5111H17.0833ZM6.31495 5.15556H15.9166V10.9333H2.41828L6.31495 5.15556ZM1.91661 12.0889H15.9166V17.2889C15.9166 17.52 16.0566 17.728 16.2783 17.8204C16.4999 17.9129 16.7449 17.8551 16.9083 17.6933L19.9999 14.6427L23.0916 17.7049C23.2083 17.8204 23.3483 17.8782 23.4999 17.8782C23.5699 17.8782 23.6516 17.8667 23.7216 17.832C23.9433 17.7396 24.0833 17.5316 24.0833 17.3004V12.1004H38.0833V34.056H1.91661V12.0889Z" fill="#F66527"/>
<path d="M15.3327 24.7998H5.99935C5.67268 24.7998 5.41602 25.054 5.41602 25.3776C5.41602 25.7011 5.67268 25.9554 5.99935 25.9554H15.3327C15.6593 25.9554 15.916 25.7011 15.916 25.3776C15.916 25.054 15.6593 24.7998 15.3327 24.7998Z" fill="#F66527"/>
<path d="M15.3327 29.4224H5.99935C5.67268 29.4224 5.41602 29.6766 5.41602 30.0001C5.41602 30.3237 5.67268 30.5779 5.99935 30.5779H15.3327C15.6593 30.5779 15.916 30.3237 15.916 30.0001C15.916 29.6766 15.6593 29.4224 15.3327 29.4224Z" fill="#F66527"/>
</svg>
