<svg width="40" height="40" viewBox="0 0 40 40" fill="none" xmlns="http://www.w3.org/2000/svg">
<path d="M0.889099 2.00003C0.398049 2.00003 0 2.40297 0 2.90003C0 3.39709 0.398049 3.80003 0.889099 3.80003H6.3904L11.072 26.2156C11.0243 26.7284 11.4947 27.2259 12.0028 27.2H34.2303C34.7 27.2068 35.1321 26.7756 35.1321 26.3C35.1321 25.8245 34.7 25.3933 34.2303 25.4H12.7252L11.975 21.8001H36.0085C36.4066 21.7956 36.7827 21.4901 36.8698 21.0969L39.9817 7.5969C40.0973 7.07458 39.6491 6.50385 39.1203 6.50003H8.77985L7.98802 2.70315C7.89991 2.30536 7.51551 1.99655 7.11279 2.00003H0.889099ZM9.15496 8.30003H38.009L35.3 20.0001H11.6L9.15496 8.30003ZM16.4483 29.9C14.2492 29.9 12.4474 31.7239 12.4474 33.95C12.4474 36.1761 14.2492 38 16.4483 38C18.6475 38 20.4493 36.1761 20.4493 33.95C20.4493 31.7239 18.6475 29.9 16.4483 29.9ZM29.7848 29.9C27.5857 29.9 25.7839 31.7239 25.7839 33.95C25.7839 36.1761 27.5857 38 29.7848 38C31.9839 38 33.7857 36.1761 33.7857 33.95C33.7857 31.7239 31.9839 29.9 29.7848 29.9ZM16.4483 31.7C17.6864 31.7 18.6711 32.6967 18.6711 33.95C18.6711 35.2033 17.6864 36.2 16.4483 36.2C15.2103 36.2 14.2256 35.2033 14.2256 33.95C14.2256 32.6967 15.2103 31.7 16.4483 31.7ZM29.7848 31.7C31.0229 31.7 32.0076 32.6967 32.0076 33.95C32.0076 35.2033 31.0229 36.2 29.7848 36.2C28.5467 36.2 27.5621 35.2033 27.5621 33.95C27.5621 32.6967 28.5467 31.7 29.7848 31.7Z" fill="#F66527"/>
</svg>
