<svg width="56" height="56" viewBox="0 0 56 56" fill="none" xmlns="http://www.w3.org/2000/svg">
<path d="M55.6192 26.4792C55.6034 26.4481 55.6034 26.4171 55.5876 26.386C55.5402 26.2929 55.477 26.1998 55.3822 26.1377L47.482 19.9302C47.403 19.8681 47.3082 19.8215 47.2292 19.806C47.1976 19.7905 47.166 19.7905 47.1344 19.7905C47.087 19.775 47.0396 19.7595 46.9922 19.7595H35.9319C35.4895 19.7595 35.1419 20.1009 35.1419 20.5354V30.6227H27.2416V12.7759C27.2416 12.3414 26.894 12 26.4516 12H7.49106C7.04865 12 6.70104 12.3414 6.70104 12.7759V30.6227H1.17088C0.728469 30.6227 0.380859 30.9641 0.380859 31.3987V39.1581C0.380859 39.5926 0.728469 39.9341 1.17088 39.9341H5.2C5.59501 42.5568 7.87027 44.5897 10.6512 44.5897C13.432 44.5897 15.7073 42.5568 16.1023 39.9341H35.9319H39.961C40.356 42.5568 42.6313 44.5897 45.4121 44.5897C48.193 44.5897 50.4683 42.5568 50.8633 39.9341H54.8924C55.3348 39.9341 55.6824 39.5926 55.6824 39.1581V26.743C55.6824 26.7275 55.6666 26.7119 55.6666 26.7119C55.6666 26.6343 55.6508 26.5568 55.6192 26.4792ZM17.7614 13.5519H25.6616V18.2076H17.7614V13.5519ZM17.7614 19.7595H25.6616V30.6227H17.7614V19.7595ZM8.28109 13.5519H16.1813V18.2076H8.28109V13.5519ZM8.28109 19.7595H16.1813V30.6227H8.28109V19.7595ZM10.6512 43.0378C8.47069 43.0378 6.70104 41.2997 6.70104 39.1581C6.70104 37.0165 8.47069 35.2784 10.6512 35.2784C12.8316 35.2784 14.6013 37.0165 14.6013 39.1581C14.6013 41.2997 12.8316 43.0378 10.6512 43.0378ZM35.1419 38.3822H16.1181C16.1023 38.3201 16.0865 38.2735 16.0707 38.2115C16.0391 38.0718 16.0075 37.9321 15.9601 37.7925C15.9127 37.6062 15.8495 37.4045 15.7863 37.2338C15.7389 37.0941 15.6757 36.9699 15.6125 36.8458C15.5335 36.6751 15.4387 36.5044 15.3281 36.3337C15.2491 36.2095 15.1701 36.1009 15.0911 35.9767C14.9805 35.8215 14.8541 35.6664 14.7119 35.5267C14.6171 35.4181 14.5223 35.3249 14.4117 35.2318C14.2853 35.0766 14.1273 34.9525 13.9692 34.8439C13.8586 34.7663 13.748 34.6731 13.6374 34.5956C13.4636 34.4869 13.274 34.3938 13.0844 34.3007C12.958 34.2386 12.8474 34.1765 12.721 34.13C12.4998 34.0369 12.2786 33.9903 12.0574 33.9282C11.9468 33.8972 11.8362 33.8662 11.7256 33.8351C11.378 33.773 11.0146 33.7265 10.6512 33.7265C10.2877 33.7265 9.92433 33.773 9.57672 33.8351C9.46612 33.8506 9.35552 33.8972 9.24491 33.9282C9.02371 33.9903 8.7867 34.0524 8.58129 34.13C8.45489 34.1765 8.34429 34.2386 8.21788 34.3007C8.02828 34.3938 7.83867 34.4869 7.66487 34.5956C7.55426 34.6731 7.44366 34.7507 7.33306 34.8439C7.17505 34.968 7.01705 35.0922 6.87485 35.2163C6.76424 35.3094 6.66944 35.4181 6.57464 35.5112C6.44823 35.6508 6.32183 35.806 6.19543 35.9612C6.11642 36.0699 6.03742 36.194 5.95842 36.3182C5.84782 36.4889 5.76881 36.6596 5.67401 36.8303C5.61081 36.9544 5.54761 37.0941 5.50021 37.2183C5.4212 37.4045 5.3738 37.5907 5.3264 37.7769C5.2948 37.9166 5.2474 38.0563 5.2158 38.1959C5.2 38.258 5.1842 38.3046 5.1684 38.3667H1.9609V32.1591H7.49106H26.4516H35.1419V38.3822ZM45.4121 43.0378C43.2317 43.0378 41.462 41.2997 41.462 39.1581C41.462 37.0165 43.2317 35.2784 45.4121 35.2784C47.5926 35.2784 49.3623 37.0165 49.3623 39.1581C49.3623 41.2997 47.5926 43.0378 45.4121 43.0378ZM54.1024 38.3822H50.8791C50.8633 38.3201 50.8475 38.2735 50.8317 38.2115C50.8001 38.0718 50.7685 37.9321 50.7211 37.7925C50.6737 37.6062 50.6105 37.4045 50.5473 37.2338C50.4999 37.0941 50.4367 36.9699 50.3735 36.8458C50.2945 36.6751 50.1997 36.5044 50.0891 36.3337C50.0101 36.2095 49.9311 36.1009 49.8521 35.9767C49.7415 35.8215 49.6151 35.6664 49.4729 35.5267C49.3781 35.4181 49.2833 35.3249 49.1727 35.2318C49.0305 35.0922 48.8724 34.968 48.7144 34.8594C48.6038 34.7818 48.4932 34.6887 48.3826 34.6111C48.2088 34.5024 48.0192 34.4093 47.8296 34.3162C47.7032 34.2541 47.5926 34.1921 47.4662 34.1455C47.245 34.0524 47.0238 34.0058 46.8026 33.9438C46.692 33.9127 46.5814 33.8817 46.4708 33.8506C46.1232 33.7886 45.7756 33.742 45.3963 33.742C45.0171 33.742 44.6695 33.7886 44.3219 33.8506C44.2113 33.8662 44.1007 33.9127 43.9901 33.9438C43.7689 34.0058 43.5319 34.0679 43.3265 34.1455C43.2001 34.1921 43.0895 34.2541 42.9631 34.3162C42.7735 34.4093 42.5839 34.5024 42.4101 34.6111C42.2995 34.6887 42.1889 34.7663 42.0783 34.8594C41.9202 34.9835 41.7622 35.1077 41.62 35.2318C41.5094 35.3249 41.4146 35.4336 41.3198 35.5267C41.1934 35.6664 41.067 35.8215 40.9406 35.9767C40.8616 36.0854 40.7826 36.2095 40.7036 36.3337C40.593 36.5044 40.514 36.6751 40.4192 36.8458C40.356 36.9699 40.2928 37.1096 40.2454 37.2338C40.1664 37.42 40.119 37.6062 40.0716 37.7925C40.04 37.9321 39.9926 38.0718 39.961 38.2115C39.9452 38.2735 39.9294 38.3201 39.9136 38.3822H36.7219V21.3114H46.7078L54.1024 27.1154V38.3822Z" fill="#F66527"/>
</svg>
