<svg width="32" height="32" viewBox="0 0 32 32" fill="none" xmlns="http://www.w3.org/2000/svg">
<path fill-rule="evenodd" clip-rule="evenodd" d="M6.10961 6H2V5H6.89039L7.64039 8H29.1578L26.38 18H10.1404L10.8904 21H25V22H10.1096L6.10961 6ZM9.89039 17H25.62L27.8422 9H7.89039L9.89039 17Z" fill="#F66527"/>
<path fill-rule="evenodd" clip-rule="evenodd" d="M13.5 28C14.3284 28 15 27.3284 15 26.5C15 25.6716 14.3284 25 13.5 25C12.6716 25 12 25.6716 12 26.5C12 27.3284 12.6716 28 13.5 28ZM13.5 29C14.8807 29 16 27.8807 16 26.5C16 25.1193 14.8807 24 13.5 24C12.1193 24 11 25.1193 11 26.5C11 27.8807 12.1193 29 13.5 29Z" fill="#F66527"/>
<path fill-rule="evenodd" clip-rule="evenodd" d="M22.5 28C23.3284 28 24 27.3284 24 26.5C24 25.6716 23.3284 25 22.5 25C21.6716 25 21 25.6716 21 26.5C21 27.3284 21.6716 28 22.5 28ZM22.5 29C23.8807 29 25 27.8807 25 26.5C25 25.1193 23.8807 24 22.5 24C21.1193 24 20 25.1193 20 26.5C20 27.8807 21.1193 29 22.5 29Z" fill="#F66527"/>
</svg>
