<svg width="16" height="16" viewBox="0 0 16 16" fill="none" xmlns="http://www.w3.org/2000/svg">
<path d="M8.11998 10.1236L8.11853 10.1251C8.10304 10.1407 8.0846 10.1531 8.0643 10.1616C8.04399 10.17 8.02221 10.1744 8.0002 10.1744C7.9782 10.1744 7.95641 10.17 7.93611 10.1616C7.9158 10.1531 7.89737 10.1407 7.88187 10.1251L7.88042 10.1236L4.54709 6.79031L4.54709 6.79031L4.54564 6.78887C4.53001 6.77337 4.51761 6.75494 4.50915 6.73463C4.50069 6.71432 4.49634 6.69254 4.49634 6.67053C4.49634 6.64853 4.50069 6.62674 4.50915 6.60644C4.51761 6.58613 4.53001 6.56769 4.54564 6.5522L4.54565 6.55221L4.54854 6.5493C4.56403 6.53368 4.58246 6.52128 4.60277 6.51282C4.62308 6.50436 4.64487 6.5 4.66687 6.5C4.68887 6.5 4.71065 6.50436 4.73097 6.51282C4.75127 6.52128 4.76971 6.53368 4.7852 6.5493L4.78624 6.55034L7.64624 9.41701L8.0002 9.7718L8.35417 9.41701L11.2138 6.55075C11.2138 6.55071 11.2138 6.55066 11.2139 6.55061C11.2456 6.51893 11.2887 6.50114 11.3335 6.50114C11.3558 6.50114 11.3778 6.50552 11.3984 6.51403C11.4189 6.52254 11.4376 6.53502 11.4533 6.55075C11.4851 6.58252 11.5029 6.62561 11.5029 6.67053C11.5029 6.69278 11.4985 6.71481 11.49 6.73536C11.4815 6.75591 11.469 6.77458 11.4533 6.79031L8.11998 10.1236L8.11998 10.1236Z" fill="#B0B4BB" stroke="#B0B4BB"/>
</svg>
