<svg width="32" height="32" viewBox="0 0 32 32" fill="none" xmlns="http://www.w3.org/2000/svg">
<rect width="32" height="32" fill="white"/>
<path d="M18.2177 17.504L18.3982 17.6578L18.6315 17.6153C20.0116 17.3644 21.1297 17.2962 21.9592 17.3944C22.7981 17.4937 23.2361 17.7485 23.4256 18.0347C23.4509 18.0785 23.5021 18.186 23.4999 18.3284C23.4979 18.4614 23.4491 18.6893 23.1551 18.9816C22.7194 19.4146 22.3015 19.6121 21.7152 19.5856L21.7039 19.5851H21.6926C20.8795 19.5851 19.8651 19.1028 18.5438 18.0588L18.3649 17.9174L18.1408 17.9598C17.4033 18.0994 16.5674 18.3074 15.6347 18.5819C14.8306 18.7908 14.096 19.0343 13.4646 19.2783L13.2904 19.3457L13.203 19.5107C12.6998 20.4611 12.111 21.3901 11.499 22.116C10.874 22.8574 10.2829 23.317 9.78836 23.4475C9.64185 23.4838 9.56586 23.5 9.50123 23.5C9.29949 23.5 9.0953 23.4216 8.88002 23.2621C8.70258 23.1225 8.60298 22.9814 8.55108 22.8463C8.49935 22.7116 8.4836 22.5533 8.51917 22.361C8.60225 21.9688 8.9642 21.4694 9.73928 20.9068C10.5008 20.354 11.5878 19.7937 12.9696 19.2576L13.149 19.1881L13.2355 19.0162C13.5129 18.4646 13.7925 17.8742 14.0384 17.2807L14.0385 17.2807L14.0423 17.2708C14.4559 16.2087 14.8028 15.2437 15.0814 14.3436L15.1435 14.1429L15.0437 13.9581C14.5579 13.0589 14.1221 12.0738 13.8743 11.1774C13.6195 10.2556 13.5941 9.53442 13.7932 9.08918L13.7933 9.08926L13.7986 9.07645C13.9488 8.71401 14.2585 8.5 14.775 8.5C15.2451 8.5 15.5551 8.67079 15.7592 8.98641L15.7592 8.98645L15.7638 8.99338C16.0086 9.35832 16.1151 9.99655 16.0445 10.9015C15.9755 11.7846 15.746 12.8282 15.4254 13.9185L15.3662 14.1201L15.4687 14.3035C15.8263 14.9434 16.2593 15.5557 16.6676 15.9985L16.675 16.0065L16.6827 16.0142C16.8151 16.1457 16.946 16.278 17.0756 16.4091C17.465 16.8026 17.8435 17.1851 18.2177 17.504ZM8.99689 23.1072L9.03294 23.1341L9.07321 23.1541C9.07493 23.155 9.07685 23.1559 9.07896 23.157C9.11347 23.1743 9.19953 23.2175 9.30955 23.2393C9.43493 23.2643 9.56142 23.2577 9.69031 23.2257C10.1129 23.1206 10.5402 22.7702 10.9231 22.3722C11.3265 21.953 11.7556 21.4001 12.1767 20.7721L13.1931 19.2565L11.5461 20.0424C10.6662 20.4622 10.0047 20.8734 9.54574 21.2458C9.31654 21.4318 9.1289 21.6153 8.98913 21.7934C8.86875 21.9468 8.76097 22.1249 8.71358 22.319C8.67631 22.4209 8.65016 22.5665 8.70612 22.7334C8.76727 22.9158 8.89911 23.0343 8.99689 23.1072ZM13.9859 9.13703L13.9801 9.14852L13.9749 9.16029C13.8742 9.3891 13.8463 9.64912 13.8513 9.89841C13.8565 10.1533 13.8971 10.4326 13.9617 10.7218C14.0911 11.3005 14.3269 11.9634 14.6273 12.6307L15.2174 13.942L15.5681 12.5475C15.7619 11.7768 15.8725 11.0844 15.8912 10.5142C15.9089 9.9733 15.8488 9.43858 15.5963 9.07595L15.5705 9.03892L15.5385 9.0071C15.5371 9.00574 15.5356 9.0043 15.5341 9.00277C15.4962 8.96501 15.4095 8.87857 15.2789 8.80931C15.1374 8.73429 14.9705 8.69149 14.775 8.69149C14.5841 8.69149 14.3871 8.72574 14.221 8.84587C14.0594 8.96267 13.9901 9.12693 13.9861 9.13659C13.986 9.13685 13.9859 9.137 13.9859 9.13703ZM13.9049 17.9808L13.4811 18.9638L14.507 18.6579L15.5317 18.3522C15.5322 18.3521 15.5326 18.352 15.533 18.3519C15.9879 18.2189 16.441 18.1077 16.8889 17.9977C17.001 17.9702 17.1128 17.9427 17.2243 17.915L18.0857 17.7009L17.4562 17.0752C17.1468 16.7676 16.8478 16.4702 16.5497 16.141L16.5409 16.1313L16.5316 16.122C16.349 15.9405 16.1617 15.6838 15.9183 15.3502C15.8894 15.3106 15.8598 15.2699 15.8292 15.2282L15.2691 14.4626L14.9541 15.3574C14.8148 15.7529 14.6721 16.1156 14.5276 16.4831C14.4235 16.7478 14.3184 17.0149 14.2129 17.2985C14.1079 17.5099 14.0048 17.7492 13.9084 17.9727L13.9049 17.9808ZM22.9925 18.8155L22.9926 18.8156L23.0004 18.8063C23.0874 18.7026 23.1871 18.5355 23.1773 18.3193C23.1669 18.0909 23.0408 17.9292 22.9233 17.8336C22.7196 17.6677 22.4263 17.5998 22.1726 17.5644C21.6189 17.4871 20.7879 17.5105 19.7754 17.6493L18.4624 17.8293L19.5671 18.5615C20.3184 19.0593 21.0343 19.3596 21.6926 19.3596C22.1698 19.3596 22.6327 19.2243 22.9925 18.8155Z" fill="#B0B4BB" stroke="#FF0000"/>
<path d="M5.5 2.5H26.5V23.7929L20.7929 29.5H5.5V2.5Z" stroke="#DFE3E8"/>
</svg>
