<svg width="16" height="12" viewBox="0 0 16 12" fill="none" xmlns="http://www.w3.org/2000/svg">
<path d="M14.3535 1.56211L14.3613 1.56999L14.3695 1.57751C14.4202 1.62433 14.4607 1.68116 14.4884 1.74441C14.5161 1.80766 14.5304 1.87596 14.5304 1.94501C14.5304 2.01406 14.5161 2.08237 14.4884 2.14562C14.4607 2.20887 14.4202 2.26569 14.3695 2.31251L14.3621 2.31934L14.3549 2.32646L6.19493 10.4865L6.19349 10.4879C6.147 10.5348 6.0917 10.572 6.03077 10.5974C5.96985 10.6227 5.90449 10.6358 5.83849 10.6358C5.77248 10.6358 5.70712 10.6227 5.6462 10.5974C5.58527 10.572 5.52997 10.5348 5.48349 10.4879L5.48204 10.4865L1.64204 6.64646L1.64209 6.64641L1.63587 6.6404C1.58657 6.59278 1.54714 6.53592 1.51982 6.47306C1.4925 6.4102 1.47783 6.34257 1.47664 6.27404C1.47545 6.20551 1.48778 6.13742 1.51291 6.07365C1.53804 6.00989 1.57548 5.95169 1.6231 5.9024C1.67072 5.8531 1.72758 5.81367 1.79044 5.78635C1.8533 5.75903 1.92093 5.74435 1.98946 5.74317C2.05799 5.74198 2.12608 5.75431 2.18984 5.77944C2.25239 5.80408 2.30957 5.84058 2.35825 5.8869L5.48437 9.023L5.83816 9.37792L6.19228 9.02333L13.6423 1.56333L13.6435 1.56211C13.69 1.51525 13.7453 1.47805 13.8062 1.45267C13.8671 1.42728 13.9325 1.41422 13.9985 1.41422C14.0645 1.41422 14.1298 1.42728 14.1908 1.45267C14.2517 1.47805 14.307 1.51525 14.3535 1.56211Z" fill="#F66527" stroke="#F66527"/>
</svg>
