<svg width="24" height="24" viewBox="0 0 24 24" fill="none" xmlns="http://www.w3.org/2000/svg">
<path d="M19.5487 3.73157C19.0377 3.26011 16.9729 1.7612 12.3737 1.74083C12.3737 1.74083 6.95012 1.41377 4.30619 3.83895C2.83442 5.31102 2.31668 7.46498 2.26207 10.1354C2.20746 12.8059 2.1368 17.8105 6.96092 19.1675H6.96555L6.96246 21.2382C6.96246 21.2382 6.93161 22.0765 7.4836 22.2474C8.15129 22.4548 8.54314 21.8176 9.1806 21.1308C9.53049 20.7537 10.0137 20.1999 10.3778 19.7766C13.677 20.0543 16.2145 19.4196 16.5027 19.3258C17.1689 19.1098 20.9384 18.6269 21.5514 13.6226C22.1843 8.46467 21.2454 5.2021 19.5487 3.73157Z" fill="white"/>
<path d="M18.4754 4.77329C18.0435 4.38081 16.1789 3.20926 12.2885 3.19229C12.2885 3.19229 7.68155 2.88961 5.44521 4.91522C4.20053 6.14416 3.78122 7.97168 3.73525 10.2018C3.68927 12.432 3.45108 16.6924 7.53036 17.8257C7.53036 17.8257 7.51432 20.9886 7.51247 21.2666C7.51247 21.461 7.54332 21.594 7.6544 21.6215C7.73431 21.6409 7.85403 21.5995 7.95585 21.498C8.60811 20.843 10.6964 18.3237 10.6964 18.3237C13.4983 18.5067 15.7275 17.9535 15.9672 17.8751C16.5325 17.6934 19.5899 17.4308 20.1073 13.2512C20.642 8.94298 19.9108 6.00223 18.4754 4.77329Z" fill="#7360F2"/>
<path fill-rule="evenodd" clip-rule="evenodd" d="M12.4515 8.39793C12.459 8.25447 12.5814 8.14424 12.7248 8.15173C13.2616 8.17973 13.7081 8.34219 14.0262 8.67103C14.343 8.9986 14.4983 9.45622 14.5256 10.0058C14.5327 10.1493 14.4221 10.2714 14.2787 10.2785C14.1352 10.2856 14.0131 10.1751 14.006 10.0316C13.9826 9.56113 13.8536 9.24085 13.6522 9.03268C13.4521 8.82577 13.1467 8.69466 12.6977 8.67123C12.5543 8.66375 12.444 8.54139 12.4515 8.39793Z" fill="white"/>
<path fill-rule="evenodd" clip-rule="evenodd" d="M12.0573 6.99699C12.0678 6.85372 12.1925 6.74608 12.3357 6.75656C13.428 6.8365 14.3072 7.20972 14.9476 7.90877L14.9477 7.90887C15.5811 8.60103 15.8822 9.46209 15.8603 10.4721C15.8572 10.6157 15.7383 10.7296 15.5947 10.7265C15.451 10.7234 15.3371 10.6044 15.3403 10.4608C15.3595 9.57014 15.0976 8.84322 14.5639 8.26007C14.0319 7.67933 13.2881 7.34786 12.2978 7.27538C12.1545 7.2649 12.0469 7.14026 12.0573 6.99699Z" fill="white"/>
<path fill-rule="evenodd" clip-rule="evenodd" d="M11.5996 5.66454C11.6006 5.52089 11.7179 5.40526 11.8615 5.40626C13.371 5.41677 14.6469 5.91929 15.6713 6.91793C16.7043 7.92492 17.2152 9.29585 17.2281 10.9985C17.2292 11.1422 17.1136 11.2595 16.97 11.2606C16.8264 11.2617 16.709 11.1461 16.7079 11.0025C16.6958 9.40699 16.2211 8.18038 15.3082 7.29043C14.3867 6.39213 13.2426 5.9361 11.8579 5.92645C11.7143 5.92545 11.5986 5.80819 11.5996 5.66454Z" fill="white"/>
<path d="M12.764 13.5025C12.764 13.5025 13.1297 13.5333 13.3265 13.2908L13.7104 12.8079C13.8955 12.5685 14.3423 12.4158 14.7798 12.6595C15.1076 12.8465 15.4259 13.0498 15.7335 13.2686C16.0238 13.4821 16.6184 13.9783 16.6203 13.9783C16.9035 14.2174 16.9689 14.5685 16.7761 14.9388C16.7761 14.9409 16.7745 14.9446 16.7745 14.9465C16.5621 15.3147 16.2925 15.6467 15.9757 15.9301C15.972 15.932 15.972 15.9338 15.9686 15.9357C15.6934 16.1656 15.423 16.2964 15.1574 16.3278C15.1183 16.3347 15.0786 16.3372 15.039 16.3352C14.9219 16.3364 14.8053 16.3184 14.694 16.2822L14.6854 16.2695C14.2762 16.1541 13.5931 15.8653 12.4555 15.2377C11.7972 14.8788 11.1704 14.4648 10.582 14.0002C10.2871 13.7674 10.0057 13.5179 9.73936 13.2529L9.71097 13.2245L9.68258 13.1961L9.6542 13.1677C9.64463 13.1584 9.63538 13.1489 9.62581 13.1393C9.3608 12.873 9.11129 12.5916 8.87851 12.2967C8.4139 11.7083 7.9999 11.0817 7.64093 10.4235C7.01335 9.28557 6.72455 8.60307 6.60915 8.19332L6.5965 8.18468C6.56033 8.07331 6.54251 7.95681 6.54374 7.83972C6.54158 7.80009 6.54396 7.76033 6.55084 7.72124C6.58395 7.4561 6.71488 7.1855 6.94362 6.90945C6.94547 6.90606 6.94732 6.90606 6.94917 6.90236C7.23251 6.58558 7.56456 6.31602 7.93282 6.10384C7.93467 6.10384 7.93837 6.10199 7.94053 6.10199C8.31079 5.90915 8.66191 5.97456 8.90073 6.25626C8.90258 6.25811 9.3978 6.85268 9.61038 7.14302C9.82922 7.45087 10.0325 7.76948 10.2195 8.09767C10.4632 8.53488 10.3105 8.98258 10.071 9.16709L9.58817 9.55092C9.34442 9.74777 9.37651 10.1134 9.37651 10.1134C9.37651 10.1134 10.0917 12.8203 12.764 13.5025Z" fill="white"/>
</svg>
