<svg width="28" height="30" viewBox="0 0 28 30" fill="none" xmlns="http://www.w3.org/2000/svg">
<g filter="url(#filter0_d)">
<path d="M21.5487 6.73157C21.0377 6.26011 18.9729 4.7612 14.3737 4.74083C14.3737 4.74083 8.95012 4.41377 6.30619 6.83895C4.83442 8.31102 4.31668 10.465 4.26207 13.1354C4.20746 15.8059 4.1368 20.8105 8.96092 22.1675H8.96555L8.96246 24.2382C8.96246 24.2382 8.93161 25.0765 9.4836 25.2474C10.1513 25.4548 10.5431 24.8176 11.1806 24.1308C11.5305 23.7537 12.0137 23.1999 12.3778 22.7766C15.677 23.0543 18.2145 22.4196 18.5027 22.3258C19.1689 22.1098 22.9384 21.6269 23.5514 16.6226C24.1843 11.4647 23.2454 8.2021 21.5487 6.73157Z" fill="white"/>
<path d="M20.4754 7.77329C20.0435 7.38081 18.1789 6.20926 14.2885 6.19229C14.2885 6.19229 9.68155 5.88961 7.44521 7.91522C6.20053 9.14416 5.78122 10.9717 5.73525 13.2018C5.68927 15.432 5.45108 19.6924 9.53036 20.8257C9.53036 20.8257 9.51432 23.9886 9.51247 24.2666C9.51247 24.461 9.54332 24.594 9.6544 24.6215C9.73431 24.6409 9.85403 24.5995 9.95585 24.498C10.6081 23.843 12.6964 21.3237 12.6964 21.3237C15.4983 21.5067 17.7275 20.9535 17.9672 20.8751C18.5325 20.6934 21.5899 20.4308 22.1073 16.2512C22.642 11.943 21.9108 9.00223 20.4754 7.77329Z" fill="#7360F2"/>
<path fill-rule="evenodd" clip-rule="evenodd" d="M14.4515 11.3979C14.459 11.2545 14.5814 11.1442 14.7248 11.1517C15.2616 11.1797 15.7081 11.3422 16.0262 11.671C16.343 11.9986 16.4983 12.4562 16.5256 13.0058C16.5327 13.1493 16.4221 13.2714 16.2787 13.2785C16.1352 13.2856 16.0131 13.1751 16.006 13.0316C15.9826 12.5611 15.8536 12.2409 15.6522 12.0327C15.4521 11.8258 15.1467 11.6947 14.6977 11.6712C14.5543 11.6637 14.444 11.5414 14.4515 11.3979Z" fill="white"/>
<path fill-rule="evenodd" clip-rule="evenodd" d="M14.0573 9.99699C14.0678 9.85372 14.1925 9.74608 14.3357 9.75656C15.428 9.8365 16.3072 10.2097 16.9476 10.9088L16.9477 10.9089C17.5811 11.601 17.8822 12.4621 17.8603 13.4721C17.8572 13.6157 17.7383 13.7296 17.5947 13.7265C17.451 13.7234 17.3371 13.6044 17.3403 13.4608C17.3595 12.5701 17.0976 11.8432 16.5639 11.2601C16.0319 10.6793 15.2881 10.3479 14.2978 10.2754C14.1545 10.2649 14.0469 10.1403 14.0573 9.99699Z" fill="white"/>
<path fill-rule="evenodd" clip-rule="evenodd" d="M13.5996 8.66454C13.6006 8.52089 13.7179 8.40526 13.8615 8.40626C15.371 8.41677 16.6469 8.91929 17.6713 9.91793C18.7043 10.9249 19.2152 12.2959 19.2281 13.9985C19.2292 14.1422 19.1136 14.2595 18.97 14.2606C18.8264 14.2617 18.709 14.1461 18.7079 14.0025C18.6958 12.407 18.2211 11.1804 17.3082 10.2904C16.3867 9.39213 15.2426 8.9361 13.8579 8.92645C13.7143 8.92545 13.5986 8.80819 13.5996 8.66454Z" fill="white"/>
<path d="M14.764 16.5025C14.764 16.5025 15.1297 16.5333 15.3265 16.2908L15.7104 15.8079C15.8955 15.5685 16.3423 15.4158 16.7798 15.6595C17.1076 15.8465 17.4259 16.0498 17.7335 16.2686C18.0238 16.4821 18.6184 16.9783 18.6203 16.9783C18.9035 17.2174 18.9689 17.5685 18.7761 17.9388C18.7761 17.9409 18.7745 17.9446 18.7745 17.9465C18.5621 18.3147 18.2925 18.6467 17.9757 18.9301C17.972 18.932 17.972 18.9338 17.9686 18.9357C17.6934 19.1656 17.423 19.2964 17.1574 19.3278C17.1183 19.3347 17.0786 19.3372 17.039 19.3352C16.9219 19.3364 16.8053 19.3184 16.694 19.2822L16.6854 19.2695C16.2762 19.1541 15.5931 18.8653 14.4555 18.2377C13.7972 17.8788 13.1704 17.4648 12.582 17.0002C12.2871 16.7674 12.0057 16.5179 11.7394 16.2529L11.711 16.2245L11.6826 16.1961L11.6542 16.1677C11.6446 16.1584 11.6354 16.1489 11.6258 16.1393C11.3608 15.873 11.1113 15.5916 10.8785 15.2967C10.4139 14.7083 9.9999 14.0817 9.64093 13.4235C9.01335 12.2856 8.72455 11.6031 8.60915 11.1933L8.5965 11.1847C8.56033 11.0733 8.54251 10.9568 8.54374 10.8397C8.54158 10.8001 8.54396 10.7603 8.55084 10.7212C8.58395 10.4561 8.71488 10.1855 8.94362 9.90945C8.94547 9.90606 8.94732 9.90606 8.94917 9.90236C9.23251 9.58558 9.56456 9.31602 9.93282 9.10384C9.93467 9.10384 9.93837 9.10199 9.94053 9.10199C10.3108 8.90915 10.6619 8.97456 10.9007 9.25626C10.9026 9.25811 11.3978 9.85268 11.6104 10.143C11.8292 10.4509 12.0325 10.7695 12.2195 11.0977C12.4632 11.5349 12.3105 11.9826 12.071 12.1671L11.5882 12.5509C11.3444 12.7478 11.3765 13.1134 11.3765 13.1134C11.3765 13.1134 12.0917 15.8203 14.764 16.5025Z" fill="white"/>
</g>
<defs>
<filter id="filter0_d" x="-2" y="-1" width="32" height="32" filterUnits="userSpaceOnUse" color-interpolation-filters="sRGB">
<feFlood flood-opacity="0" result="BackgroundImageFix"/>
<feColorMatrix in="SourceAlpha" type="matrix" values="0 0 0 0 0 0 0 0 0 0 0 0 0 0 0 0 0 0 127 0"/>
<feOffset/>
<feGaussianBlur stdDeviation="2"/>
<feColorMatrix type="matrix" values="0 0 0 0 0 0 0 0 0 0 0 0 0 0 0 0 0 0 0.21 0"/>
<feBlend mode="normal" in2="BackgroundImageFix" result="effect1_dropShadow"/>
<feBlend mode="normal" in="SourceGraphic" in2="effect1_dropShadow" result="shape"/>
</filter>
</defs>
</svg>
