<svg width="24" height="24" viewBox="0 0 24 24" fill="none" xmlns="http://www.w3.org/2000/svg">
<g clip-path="url(#clip0)">
<path d="M0 11.5C0 6.07885 0 3.36827 1.68413 1.68413C3.36827 0 6.07885 0 11.5 0L12.5 0C17.9212 0 20.6317 0 22.3158 1.68413C24 3.36827 24 6.07885 24 11.5V12.5C24 17.9212 24 20.6317 22.3158 22.3158C20.6317 24 17.9212 24 12.5 24H11.5C6.07885 24 3.36827 24 1.68413 22.3158C0 20.6317 0 17.9212 0 12.5L0 11.5Z" fill="#2787F5"/>
<path fill-rule="evenodd" clip-rule="evenodd" d="M6.50094 7.5H4.75054C4.25042 7.5 4.15039 7.7354 4.15039 7.9949C4.15039 8.45845 4.74382 10.7574 6.91349 13.7979C8.35994 15.8744 10.3978 17 12.2523 17C13.3649 17 13.5026 16.75 13.5026 16.3194V14.75C13.5026 14.25 13.608 14.1502 13.9603 14.1502C14.2199 14.1502 14.665 14.28 15.7035 15.2811C16.8903 16.4677 17.086 17 17.7535 17H19.5039C20.0041 17 20.2541 16.75 20.1099 16.2567C19.952 15.765 19.3854 15.0515 18.6335 14.2058C18.2255 13.7238 17.6135 13.2047 17.4281 12.9451C17.1685 12.6114 17.2426 12.463 17.4281 12.1664C17.4281 12.1664 19.5607 9.16295 19.7832 8.1433C19.8945 7.77245 19.7832 7.5 19.2539 7.5L17.5035 7.5C17.0584 7.5 16.8532 7.7354 16.7419 7.9949C16.7419 7.9949 15.8518 10.1641 14.5908 11.5731C14.1828 11.981 13.9974 12.1108 13.7748 12.1108C13.6636 12.1108 13.5025 11.981 13.5025 11.6103V8.1433C13.5025 7.6983 13.3734 7.5 13.0024 7.5L10.2518 7.5C9.97369 7.5 9.80639 7.7065 9.80639 7.90225C9.80639 8.32405 10.4369 8.42135 10.5019 9.6079V12.185C10.5019 12.75 10.3998 12.8525 10.1773 12.8525C9.58389 12.8525 8.14044 10.6736 7.28434 8.18035C7.11659 7.69575 6.94829 7.5 6.50094 7.5V7.5Z" fill="white"/>
</g>
<defs>
<clipPath id="clip0">
<rect width="24" height="24" fill="white"/>
</clipPath>
</defs>
</svg>
